<?xml version="1.0" encoding="utf-8"?>
<!-- Generator: Adobe Illustrator 26.1.0, SVG Export Plug-In . SVG Version: 6.00 Build 0)  -->
<svg version="1.1" id="svg4818" xmlns:svg="http://www.w3.org/2000/svg"
	 xmlns="http://www.w3.org/2000/svg" xmlns:xlink="http://www.w3.org/1999/xlink" x="0px" y="0px" viewBox="0 0 682.7 682.7"
	 style="enable-background:new 0 0 682.7 682.7;" xml:space="preserve">
<style type="text/css">
	.st0{fill:none;stroke:#FFFFFF;stroke-width:20;stroke-linecap:round;stroke-linejoin:round;stroke-miterlimit:13.3333;}
</style>
<g id="g4826">
	<g>
		<g id="g4828">
			<g id="g4834" transform="translate(183.2803,339.2305)">
				<path id="path4836" class="st0" d="M61.1-108.9c-0.4-2.1-0.7-4.3-0.7-6.6c0-18.4,14.9-33.3,33.3-33.3
					c18.4,0,33.3,14.9,33.3,33.3c0,2.2-0.2,4.4-0.7,6.6"/>
			</g>
			<g id="g4838" transform="translate(383.2803,339.2305)">
				<path id="path4840" class="st0" d="M127.8-108.9c-0.4-2.1-0.7-4.3-0.7-6.6c0-18.4,14.9-33.3,33.3-33.3
					c18.4,0,33.3,14.9,33.3,33.3c0,2.2-0.2,4.4-0.7,6.6"/>
			</g>
			<g id="g4842" transform="translate(207.792,424.5771)">
				<path id="path4844" class="st0" d="M69.3-308v85"/>
			</g>
			<g id="g4846" transform="translate(407.792,424.5771)">
				<path id="path4848" class="st0" d="M135.9-308v85"/>
			</g>
			<g id="g4850" transform="translate(392.667,143.7695)">
				<path id="path4852" class="st0" d="M130.9,347.2h106.6c7.4,0,13.3-6,13.3-13.3V105.3c0-7.4-6-13.3-13.3-13.3h-439.6
					c-7.4,0-13.3,6-13.3,13.3v228.6c0,7.4,6,13.3,13.3,13.3H85.6"/>
			</g>
			<g id="g4854" transform="translate(78.8076,428.5771)">
				<path id="path4856" class="st0" d="M26.3-317.3h227.4"/>
			</g>
			<g id="g4858" transform="translate(283.334,428.5771)">
				<path id="path4860" class="st0" d="M94.4-317.3H376c7.4,0,13.3-6,13.3-13.3v-30.7c0-7.4-6-13.3-13.3-13.3h-554.3"/>
			</g>
			<g id="g4862" transform="translate(74.8076,23.5)">
				<path id="path4864" class="st0" d="M24.9,627.8V21.2c0-7.4-6-13.3-13.3-13.3h-63.1c-7.4,0-13.3,6-13.3,13.3v135.3"/>
			</g>
			<g id="g4866" transform="translate(7.5,343)">
				<path id="path4868" class="st0" d="M2.5-117.7v426"/>
			</g>
			<g id="g4870" transform="translate(258.5,241.0078)">
				<path id="path4872" class="st0" d="M86.2,120.3L33.5,76.5l-52.7,43.8"/>
			</g>
			<g id="g4874" transform="translate(243.8027,249.2217)">
				<path id="path4876" class="st0" d="M81.3,101.1v58.8H15.1v-58.8"/>
			</g>
			<g id="g4878" transform="translate(328.5,254.3896)">
				<path id="path4880" class="st0" d="M109.5,89.1V42.5"/>
			</g>
			<g id="g4882" transform="translate(426.5762,250.3896)">
				<path id="path4884" class="st0" d="M142.2,98.4H-35.6c-3.7,0-6.7-3-6.7-6.7V47.8c0-3.7,3-6.7,6.7-6.7h177.8c3.7,0,6.7,3,6.7,6.7
					v43.9C148.9,95.4,145.9,98.4,142.2,98.4z"/>
			</g>
			<g id="g4886" transform="translate(340.5,217.7119)">
				<path id="path4888" class="st0" d="M113.5,174.7h123.1"/>
			</g>
			<g id="g4890" transform="translate(288.2432,217.7119)">
				<path id="path4892" class="st0" d="M96.1,174.7h33"/>
			</g>
			<g id="g4894" transform="translate(288.2432,191.6289)">
				<path id="path4896" class="st0" d="M96.1,235.5h192.7"/>
			</g>
			<g id="g4898" transform="translate(218.9893,225)">
				<path id="path4900" class="st0" d="M73,157.7v21.1"/>
			</g>
		</g>
	</g>
</g>
</svg>
