<?xml version="1.0" encoding="utf-8"?>
<!-- Generator: Adobe Illustrator 26.1.0, SVG Export Plug-In . SVG Version: 6.00 Build 0)  -->
<svg version="1.1" id="Capa_1" xmlns="http://www.w3.org/2000/svg" xmlns:xlink="http://www.w3.org/1999/xlink" x="0px" y="0px"
	 viewBox="0 0 512 512" style="enable-background:new 0 0 512 512;" xml:space="preserve">
<style type="text/css">
	.st0{fill:#FFFFFF;}
</style>
<g>
	<path class="st0" d="M240,16c4.5,0,8.1-3.7,7.8-8.3c-0.3-4.3-4-7.5-8.3-7.2c-4.3,0.3-7.5,3.9-7.3,8.2C232.5,12.8,235.9,16,240,16z
		 M271.3,16c4.1,0,7.5-3.2,7.7-7.3c0.2-4.3-3.1-7.9-7.4-8.2c-4.3-0.2-7.9,3-8.2,7.3C263.2,12.2,266.8,16,271.3,16z M210.6,19.8
		c4.2-0.8,7-4.9,6.2-9.1c-0.8-4.2-4.9-7-9.1-6.2c-4.2,0.8-7,4.8-6.2,9.1C202.3,17.9,206.5,20.6,210.6,19.8L210.6,19.8z M13.5,202
		c4,1,8.4-1.4,9.4-5.6c1.1-4.2-1.4-8.5-5.6-9.5c-4.1-1.1-8.4,1.5-9.4,5.6l0,0.1C6.8,196.8,9.3,201,13.5,202z M181.3,27.3
		c4.1-1.3,6.4-5.7,5.1-9.8c-1.3-4.1-5.7-6.2-9.8-4.9c-4.1,1.3-6.3,5.7-5,9.7C172.9,26.4,177.3,28.6,181.3,27.3L181.3,27.3z
		 M34.7,369c-3.7,2.1-5.1,6.8-3,10.5l0,0c1.4,2.6,4.1,4,6.8,4c1.3,0,2.5-0.3,3.7-1c3.7-2.1,5.1-6.8,3.1-10.5c0,0-0.1-0.1-0.1-0.1
		C43.1,368.2,38.4,366.9,34.7,369L34.7,369z M9.6,232.9c3.9,0,7.2-2.9,7.7-6.8c0.6-4.2-2.4-8.1-6.7-8.7c-4.3-0.6-8.2,2.6-8.7,6.9
		C1.4,228.8,5,232.9,9.6,232.9z M22.2,172.1c3.9,1.5,8.4-0.4,10-4.4c1.6-4-0.3-8.5-4.3-10.1c-4-1.6-8.5,0.3-10.1,4.3
		C16.2,165.9,18.1,170.5,22.2,172.1z M153.2,38.5c3.9-1.9,5.7-6.6,3.8-10.5c-1.9-3.8-6.5-5.4-10.3-3.5c-3.8,1.9-5.6,6.4-3.7,10.3
		C144.8,38.7,149.4,40.3,153.2,38.5z M488.9,195.7c1.1,4.2,5.4,6.6,9.4,5.6c4.1-1.1,6.7-5.3,5.6-9.4l0-0.1c-1.1-4.1-5.3-6.6-9.4-5.5
		C490.3,187.3,487.8,191.6,488.9,195.7L488.9,195.7z M473.5,383.4c2.8,0,5.4-1.5,6.8-4.1l0,0c2.1-3.7,0.7-8.5-3.1-10.5
		c-3.7-2.1-8.5-0.7-10.5,3.1l-0.1,0.1C463.9,377,467.8,383.4,473.5,383.4z M483.9,156.9c-4,1.6-6,6-4.4,10l0.1,0.2
		c1.6,4,6.2,5.8,10.1,4.2c4-1.6,5.8-6.1,4.2-10.1l0,0C492.4,157.3,487.9,155.3,483.9,156.9L483.9,156.9z M501.2,216.7
		c-4.2,0.6-7.2,4.4-6.7,8.7c0.6,4.3,4.4,7.3,8.6,6.8c4.2-0.5,7.3-4.3,6.8-8.6l0-0.2C509.4,219.1,505.5,216.1,501.2,216.7
		L501.2,216.7z M477.2,142.8c3.7-2.1,5.1-6.8,3-10.5l0,0c-2.1-3.7-6.8-5.1-10.5-3.1c-3.7,2.1-5.1,6.8-3.1,10.5c0,0,0.1,0.1,0.1,0.1
		C468.7,143.7,473.5,144.9,477.2,142.8z M330,27.1c4,1.3,8.4-0.9,9.7-5c1.3-4.1-0.9-8.4-5-9.7c-4.1-1.3-8.5,0.9-9.8,5
		C323.7,21.4,326,25.8,330,27.1z M300.9,19.7c4.1,0.7,8.2-2,9-6.3c0.7-4.2-2-8.2-6.3-9l0,0c-4.2-0.8-8.3,1.9-9.1,6.1
		C293.7,14.8,296.6,18.9,300.9,19.7z M358.1,38.2c3.8,1.8,8.5,0.2,10.3-3.7c1.8-3.9,0.2-8.5-3.7-10.3c-3.9-1.9-8.6-0.3-10.4,3.7
		C352.5,31.7,354.2,36.4,358.1,38.2z M42,129.7c-3.8-2-8.4-0.6-10.5,3.2c-2.1,3.7-0.7,8.5,3.1,10.5c3.7,2,8.5,0.7,10.6-3.2
		C47.2,136.5,45.8,131.8,42,129.7z M437.7,386.1c-12.2,0-23.4,4.3-32.3,11.4L378,370c27.9-29.9,45.1-70,45.1-114
		c0-42.5-16-81.4-42.3-110.9l28-28c8.2,5.6,18.2,8.8,28.9,8.8c28.5,0,51.6-23.2,51.6-51.6s-23.2-51.6-51.6-51.6
		c-28.5,0-51.6,23.2-51.6,51.6c0,12.2,4.3,23.4,11.4,32.3L370,134c-29.9-27.9-70-45.1-114-45.1c-32.5,0-63.9,9.3-91,26.9
		c-8.2,5.4-16,11.4-23.1,18.1l-27.4-27.4c7.1-8.8,11.4-20.1,11.4-32.3c0-28.5-23.2-51.6-51.6-51.6S22.7,45.9,22.7,74.3
		s23.2,51.6,51.6,51.6c10.7,0,20.6-3.3,28.9-8.9l27.9,27.9c-10.8,12.1-19.8,25.8-26.7,40.6c-1.8,3.9-0.1,8.5,3.8,10.3
		c3.9,1.8,8.5,0.1,10.3-3.8c7.2-15.6,17-29.7,28.9-41.8c0,0,0,0,0,0c0,0,0,0,0,0c7.8-8,16.5-15.2,26-21.4
		c24.6-16,53.1-24.4,82.6-24.4c83.6,0,151.6,68,151.6,151.6s-68,151.6-151.6,151.6s-151.6-68-151.6-151.6c0-9.9,1-19.8,2.8-29.4
		c0.8-4.2-1.9-8.3-6.1-9.1c-4.2-0.8-8.3,1.9-9.1,6.1c-2.1,10.6-3.1,21.5-3.1,32.4c0,44,17.1,84.1,45.1,114l-27.4,27.4
		c-8.8-7.1-20.1-11.4-32.3-11.4c-28.5,0-51.6,23.2-51.6,51.6c0,28.5,23.2,51.6,51.6,51.6s51.6-23.2,51.6-51.6
		c0-10.7-3.3-20.6-8.8-28.9l28-28c29.5,26.3,68.4,42.3,110.9,42.3s81.4-16,110.9-42.3l28,28c-5.6,8.2-8.8,18.2-8.8,28.9
		c0,28.5,23.2,51.6,51.6,51.6c28.5,0,51.6-23.2,51.6-51.6C489.3,409.2,466.2,386.1,437.7,386.1L437.7,386.1z M437.7,38.2
		c19.9,0,36.1,16.2,36.1,36.1s-16.2,36.1-36.1,36.1c-19.9,0-36.1-16.2-36.1-36.1S417.8,38.2,437.7,38.2z M74.3,110.4
		c-19.9,0-36.1-16.2-36.1-36.1s16.2-36.1,36.1-36.1s36.1,16.2,36.1,36.1S94.2,110.4,74.3,110.4z M74.3,473.8
		c-19.9,0-36.1-16.2-36.1-36.1c0-19.9,16.2-36.1,36.1-36.1s36.1,16.2,36.1,36.1C110.4,457.6,94.2,473.8,74.3,473.8z M437.7,473.8
		c-19.9,0-36.1-16.2-36.1-36.1c0-19.9,16.2-36.1,36.1-36.1c19.9,0,36.1,16.2,36.1,36.1C473.8,457.6,457.6,473.8,437.7,473.8z
		 M358.5,473.6c0,0-0.1,0.1-0.1,0.1c-3.9,1.8-5.5,6.5-3.7,10.3c1.9,3.9,6.5,5.5,10.3,3.7l0,0c3.9-1.8,5.5-6.4,3.7-10.3
		C367,473.5,362.4,471.8,358.5,473.6z M330.4,484.8l-0.2,0.1c-4.1,1.4-6.2,5.7-4.9,9.8c1.4,4.1,5.8,6.2,9.8,4.9l0,0
		c4.1-1.3,6.3-5.7,5-9.7C338.9,485.7,334.5,483.5,330.4,484.8L330.4,484.8z M165.3,324.1c-2.9,12.8,3.3,26.3,14.9,32.7
		c11.7,6.5,24.3,11.5,37.3,14.7c0.6,0.2,1.3,0.2,1.9,0.2c3.5,0,6.6-2.3,7.5-5.8c1-4.1-1.5-8.4-5.6-9.4c-11.7-3-23-7.4-33.6-13.3
		c-5.7-3.1-8.7-9.6-7.3-15.8c3.8-16.9,13.3-32.2,26.9-43.2c6.7-5.4,14.1-9.6,22.2-12.6c7.8,4.5,16.9,7.1,26.6,7.1
		c9.7,0,18.8-2.6,26.6-7.1c24.6,9,43.3,30.1,49,55.8c1.4,6.1-1.6,12.6-7.3,15.8c-20.8,11.5-44.4,17.6-68.3,17.6
		c-4.3,0-7.7,3.5-7.7,7.7s3.5,7.7,7.7,7.7c26.5,0,52.7-6.7,75.8-19.5c11.7-6.5,17.8-19.9,14.9-32.7c-6.3-27.9-25.2-51.3-50.7-63.5
		c8.2-9.4,13.2-21.6,13.2-35v-55.5c0-19-15.4-34.4-34.4-34.4h-37.7c-19,0-34.4,15.4-34.4,34.4v34v0v21.4c0,13.4,5,25.6,13.2,35
		c-6.6,3.1-12.7,7-18.4,11.7C181.3,285.4,169.8,303.8,165.3,324.1L165.3,324.1z M218.2,170.1c0-10.4,8.5-18.9,18.9-18.9h37.7
		c10.4,0,18.9,8.5,18.9,18.9v19.5c-14.2-8.8-31.2-10.8-47.1-5.6l-28.4,9.4L218.2,170.1L218.2,170.1z M218.2,209.6l33.3-11
		c12-4,25-2.2,35.5,4.9l6.8,4.6v17.5c0,20.8-16.9,37.8-37.8,37.8c-20.8,0-37.8-16.9-37.8-37.8V209.6z M512,255.8c0-0.1,0-0.1,0-0.2
		v-0.1c0-4.3-3.5-7.7-7.7-7.7s-7.7,3.5-7.7,7.7v0.1c0,0.1,0,0.2,0,0.2c0,0.1,0,0.1,0,0.2v0.1c-0.1,9.8,15.6,10,15.5,0V256
		C512,255.9,512,255.8,512,255.8z M7.7,264c4.3,0,7.7-3.5,7.7-7.7v-0.1c0-4.3-3.5-7.7-7.7-7.7S0,251.9,0,256.2
		C0,260.5,3.4,264,7.7,264z M503.3,279.5c-4.2-0.5-8.1,2.5-8.6,6.8c0,0,0,0.1,0,0.1c-0.6,4.5,3.1,8.6,7.7,8.6c3.9,0,7.2-2.9,7.7-6.8
		c0,0,0-0.1,0-0.1C510.5,283.8,507.5,280,503.3,279.5L503.3,279.5z M301.2,492.3c-4.2,0.7-7,4.8-6.3,9c0.7,4.2,4.8,7,9,6.3l0.2,0
		c4.2-0.8,7-4.9,6.1-9.1C309.4,494.2,305.4,491.5,301.2,492.3L301.2,492.3z M498.5,310.2c-4.1-1.1-8.4,1.4-9.4,5.6l0,0.1
		c-1.3,4.8,2.5,9.6,7.5,9.6c3.5,0,6.6-2.3,7.5-5.8l0-0.1C505.1,315.5,502.6,311.3,498.5,310.2L498.5,310.2z M489.7,340.2
		c-4-1.6-8.5,0.4-10,4.4c-2,5,1.8,10.7,7.2,10.7c3.1,0,6-1.8,7.2-4.8l0.1-0.2C495.7,346.2,493.7,341.7,489.7,340.2L489.7,340.2z
		 M271.3,496l-0.2,0c-4.2,0.3-7.4,4-7.1,8.2c0.3,4.3,4,7.5,8.2,7.2l0,0c4.3-0.3,7.5-3.9,7.3-8.2C279.2,499.1,275.5,495.8,271.3,496z
		 M28,354.9c4-1.6,6-6,4.4-10l-0.1-0.2c-1.6-4-6.2-5.9-10.1-4.2c-4,1.6-5.8,6.1-4.2,10.1l0,0C19.6,354.5,24.1,356.4,28,354.9
		L28,354.9z M153.6,473.7c-3.9-1.8-8.5-0.2-10.3,3.7s-0.2,8.5,3.7,10.3c3.8,1.8,8.6,0.3,10.4-3.7
		C159.2,480.2,157.5,475.5,153.6,473.7z M10.7,295.1c4.2-0.6,7.2-4.4,6.7-8.7c-0.5-4.2-4.3-7.3-8.6-6.8c-4.2,0.5-7.3,4.3-6.8,8.6
		C2.5,292.5,6.5,295.6,10.7,295.1z M23,316c-1.1-4.1-5.3-6.7-9.4-5.6c-4.1,1.1-6.7,5.3-5.6,9.4c1.1,4.2,5.4,6.7,9.5,5.7
		C21.6,324.4,24.1,320.1,23,316L23,316z M241,496.1c-4.3-0.3-8,2.9-8.3,7.2c-0.3,4.3,3,8,7.4,8.3c0.2,0,0.3,0,0.5,0
		c4.1,0,7.5-3.2,7.7-7.3C248.5,500,245.3,496.3,241,496.1z M181.8,484.9c-4.1-1.4-8.4,0.8-9.8,4.9c-1.7,4.9,2.2,10.3,7.4,10.3
		c3.3,0,6.3-2.1,7.4-5.4C188.1,490.5,185.9,486.2,181.8,484.9z M211.1,492.3l-0.2,0c-4.2-0.7-8.3,2.1-9,6.3s2,8.2,6.3,9
		c0.5,0.1,1,0.1,1.5,0.1c3.6,0,6.9-2.6,7.6-6.3C218,497.2,215.3,493.2,211.1,492.3L211.1,492.3z"/>
</g>
</svg>
