<?xml version="1.0" encoding="utf-8"?>
<!-- Generator: Adobe Illustrator 26.1.0, SVG Export Plug-In . SVG Version: 6.00 Build 0)  -->
<svg version="1.1" id="Layer_1" xmlns="http://www.w3.org/2000/svg" xmlns:xlink="http://www.w3.org/1999/xlink" x="0px" y="0px"
	 viewBox="0 0 512 512" style="enable-background:new 0 0 512 512;" xml:space="preserve">
<style type="text/css">
	.st0{fill:#FFFFFF;}
</style>
<g id="_19_Banner">
	<path class="st0" d="M70,146.2H41.2c-20-0.3-36-16.8-35.6-36.8C5.9,89.8,21.7,74,41.2,73.7h29.1c3.3,0,6,2.7,6,6
		c0,0.3,0,0.6-0.1,0.9c-0.2,1.2-0.3,2.5-0.2,3.8v55.8C76,143.5,73.3,146.2,70,146.2z M41.2,85.7C27.8,86,17.2,97,17.5,110.4
		c0.3,13,10.7,23.5,23.8,23.8H64V85.7H41.2z"/>
	<path class="st0" d="M470.8,146.2H442c-3.3,0-6-2.7-6-6V84.3c0-1.3-0.1-2.5-0.3-3.8c-0.5-3.3,1.8-6.3,5.1-6.8
		c0.3,0,0.6-0.1,0.9-0.1h29.1c20-0.3,36.5,15.6,36.8,35.6c0.3,20-15.6,36.5-35.6,36.8C471.5,146.2,471.1,146.2,470.8,146.2
		L470.8,146.2z M448,134.2h22.7c13.4,0.3,24.5-10.4,24.7-23.8S485.1,86,471.7,85.7c-0.3,0-0.7,0-1,0H448L448,134.2z"/>
	<path class="st0" d="M163,466.3c-0.4,0-0.9,0-1.3-0.1L70,446.3c-3.3,0-6-2.7-6-6V258.4c0-3.3,2.7-6,6-6s6,2.7,6,6v176.9l87,18.9
		l90.5-19.6c1.7-0.4,3.4-0.4,5.1,0l90.4,19.6l87-18.9v-351c0-14.7-11.9-26.6-26.7-26.7H102.6C87.9,57.7,76,69.6,76,84.3v127.3
		c0,3.3-2.7,6-6,6s-6-2.7-6-6V84.3c0-21.3,17.3-38.6,38.7-38.7h306.7c21.3,0,38.6,17.3,38.6,38.7v356c0,3.3-2.7,6-6,6l-91.7,19.9
		c-0.8,0.2-1.7,0.2-2.5,0L256,446.3l-91.7,19.9C163.8,466.3,163.4,466.3,163,466.3L163,466.3z"/>
	<path class="st0" d="M70,245.5c-3.3,0-6-2.7-6-6v-9c0-3.3,2.7-6,6-6s6,2.7,6,6v9C76,242.8,73.3,245.5,70,245.5z"/>
	<path class="st0" d="M350.1,404.6H161.9c-19.4,0-35.1-15.8-35.2-35.2v-80c0-1.8,0.8-3.5,2.1-4.6l113.5-95.3
		c7.9-6.6,19.3-6.6,27.2,0l113.5,95.2c1.4,1.1,2.1,2.8,2.1,4.6v80C385.3,388.8,369.5,404.5,350.1,404.6L350.1,404.6z M138.7,292.2
		v77.2c0,12.8,10.4,23.2,23.2,23.2h188.2c12.8,0,23.2-10.4,23.2-23.2v-77.2l-111.4-93.5c-3.4-2.9-8.4-2.9-11.8,0L138.7,292.2z"/>
	<path class="st0" d="M396.5,303.1c-6.6,0-13-2.3-18-6.5l-116.6-97.9c-3.4-2.9-8.4-2.9-11.8,0l-116.6,97.9
		c-11.8,9.9-29.5,8.4-39.4-3.5c-9.9-11.8-8.4-29.5,3.4-39.4l140.4-117.8c5-4.2,11.4-6.6,18-6.6h0.1c6.6,0,13,2.3,18,6.6l140.4,117.8
		c11.8,9.9,13.4,27.6,3.5,39.4C412.6,299.4,404.8,303.1,396.5,303.1L396.5,303.1z M256,184.5c5,0,9.8,1.8,13.6,5l116.6,97.9
		c6.8,5.6,16.9,4.6,22.5-2.2c5.5-6.7,4.6-16.6-1.9-22.3L266.3,145c-2.9-2.4-6.5-3.7-10.3-3.7h-0.1c-3.8,0-7.4,1.3-10.3,3.7
		L105.2,262.8c-6.8,5.6-7.8,15.7-2.2,22.5c5.6,6.8,15.7,7.8,22.5,2.2c0.1-0.1,0.2-0.2,0.3-0.2l116.6-97.9
		C246.2,186.3,251,184.5,256,184.5L256,184.5z"/>
	<path class="st0" d="M216.8,379.1H179c-9.4,0-17-7.6-17-17l0,0v-32.3c0-9.4,7.6-17,17-17h37.8c3.3,0,6,2.7,6,6v54.3
		C222.8,376.4,220.1,379.1,216.8,379.1L216.8,379.1z M179,324.9c-2.8,0-5,2.2-5,5v32.3c0,2.8,2.2,5,5,5h31.8v-42.3H179z"/>
	<path class="st0" d="M333,379.1h-37.8c-3.3,0-6-2.7-6-6v-54.3c0-3.3,2.7-6,6-6H333c9.4,0,17,7.6,17,17v32.3
		C350,371.5,342.4,379.1,333,379.1L333,379.1z M301.2,367.1H333c2.8,0,5-2.2,5-5v-32.3c0-2.8-2.2-5-5-5h-31.8V367.1z"/>
	<path class="st0" d="M295.2,404.6h-78.5c-3.3,0-6-2.7-6-6v-90c0-9.7,7.8-17.5,17.5-17.5h55.5c9.7,0,17.5,7.8,17.5,17.5v90
		C301.2,401.9,298.5,404.6,295.2,404.6z M222.8,392.6h66.5v-84c0-3-2.5-5.5-5.5-5.5h-55.5c-3,0-5.5,2.5-5.5,5.5V392.6z"/>
	<path class="st0" d="M256,285.8c-14.9,0-27-12.1-27-27c0-14.9,12.1-27,27-27s27,12.1,27,27C283,273.7,270.9,285.8,256,285.8
		L256,285.8z M256,243.8c-8.3,0-15,6.7-15,15c0,8.3,6.7,15,15,15s15-6.7,15-15l0,0C271,250.5,264.3,243.8,256,243.8
		C256,243.7,256,243.7,256,243.8L256,243.8z"/>
	<path class="st0" d="M283.6,353.5h-10.7c-3.3,0-6-2.7-6-6s2.7-6,6-6h10.7c3.3,0,6,2.7,6,6S286.9,353.5,283.6,353.5z"/>
</g>
</svg>
