<?xml version="1.0" encoding="utf-8"?>
<!-- Generator: Adobe Illustrator 26.1.0, SVG Export Plug-In . SVG Version: 6.00 Build 0)  -->
<svg version="1.1" id="Layer_1" xmlns="http://www.w3.org/2000/svg" xmlns:xlink="http://www.w3.org/1999/xlink" x="0px" y="0px"
	 viewBox="0 0 512 512" style="enable-background:new 0 0 512 512;" xml:space="preserve">
<style type="text/css">
	.st0{fill:#FFFFFF;}
</style>
<path class="st0" d="M149.3,229.3H64c-20.6,0-37.3-16.7-37.3-37.3v-85.3c0-20.6,16.7-37.3,37.3-37.3h85.3
	c20.6,0,37.3,16.7,37.3,37.3V192C186.6,212.6,169.9,229.3,149.3,229.3z M64,101.3c-2.9,0-5.3,2.4-5.3,5.3V192c0,2.9,2.4,5.3,5.3,5.3
	h85.3c2.9,0,5.3-2.4,5.3-5.3v-85.3c0-2.9-2.4-5.3-5.3-5.3H64z"/>
<path class="st0" d="M149.3,442.7H64c-20.6,0-37.3-16.7-37.3-37.3V320c0-20.6,16.7-37.3,37.3-37.3h85.3c20.6,0,37.3,16.7,37.3,37.3
	v85.3C186.6,425.9,169.9,442.6,149.3,442.7z M64,314.7c-2.9,0-5.3,2.4-5.3,5.3v85.3c0,2.9,2.4,5.3,5.3,5.3h85.3
	c2.9,0,5.3-2.4,5.3-5.3V320c0-2.9-2.4-5.3-5.3-5.3H64z"/>
<path class="st0" d="M469.3,122.7H256c-8.8,0-16-7.2-16-16s7.2-16,16-16h213.3c8.8,0,16,7.2,16,16S478.2,122.7,469.3,122.7z"/>
<path class="st0" d="M384,208H256c-8.8,0-16-7.2-16-16s7.2-16,16-16h128c8.8,0,16,7.2,16,16S392.8,208,384,208z"/>
<path class="st0" d="M469.3,336H256c-8.8,0-16-7.2-16-16s7.2-16,16-16h213.3c8.8,0,16,7.2,16,16S478.2,336,469.3,336z"/>
<path class="st0" d="M384,421.3H256c-8.8,0-16-7.2-16-16s7.2-16,16-16h128c8.8,0,16,7.2,16,16S392.8,421.3,384,421.3z"/>
</svg>
