<?xml version="1.0" encoding="utf-8"?>
<!-- Generator: Adobe Illustrator 26.1.0, SVG Export Plug-In . SVG Version: 6.00 Build 0)  -->
<svg version="1.1" id="line" xmlns="http://www.w3.org/2000/svg" xmlns:xlink="http://www.w3.org/1999/xlink" x="0px" y="0px"
	 viewBox="0 0 512 512" style="enable-background:new 0 0 512 512;" xml:space="preserve">
<style type="text/css">
	.st0{fill:#FFFFFF;}
</style>
<path class="st0" d="M136.5,32h-74c-13.2,0-24,10.8-24,24v74c0,13.2,10.8,24,24,24h74c13.2,0,24-10.8,24-24V56
	C160.5,42.8,149.7,32,136.5,32z M144.5,130c0,4.4-3.6,8-8,8h-74c-4.4,0-8-3.6-8-8V56c0-4.4,3.6-8,8-8h74c4.4,0,8,3.6,8,8V130z"/>
<path class="st0" d="M136.5,195h-74c-13.2,0-24,10.8-24,24v74c0,13.2,10.8,24,24,24h74c13.2,0,24-10.8,24-24v-74
	C160.5,205.8,149.7,195,136.5,195L136.5,195z M144.5,293c0,4.4-3.6,8-8,8h-74c-4.4,0-8-3.6-8-8v-74c0-4.4,3.6-8,8-8h74
	c4.4,0,8,3.6,8,8V293z"/>
<path class="st0" d="M136.5,358h-74c-13.2,0-24,10.8-24,24v74c0,13.2,10.8,24,24,24h74c13.2,0,24-10.8,24-24v-74
	C160.5,368.8,149.7,358.1,136.5,358z M144.5,456c0,4.4-3.6,8-8,8h-74c-4.4,0-8-3.6-8-8v-74c0-4.4,3.6-8,8-8h74c4.4,0,8,3.6,8,8V456z
	"/>
<path class="st0" d="M181,52.1h284.5c4.4,0,8-3.6,8-8s-3.6-8-8-8H181c-4.4,0-8,3.6-8,8S176.6,52.1,181,52.1L181,52.1z"/>
<path class="st0" d="M181,101h203c4.4,0,8-3.6,8-8s-3.6-8-8-8H181c-4.4,0-8,3.6-8,8S176.6,101,181,101z"/>
<path class="st0" d="M181,149.9h147.7c4.4,0,8-3.6,8-8s-3.6-8-8-8H181c-4.4,0-8,3.6-8,8S176.6,149.9,181,149.9z"/>
<path class="st0" d="M465.5,199.1H181c-4.4,0-8,3.6-8,8s3.6,8,8,8h284.5c4.4,0,8-3.6,8-8S469.9,199.1,465.5,199.1z"/>
<path class="st0" d="M181,264h203c4.4,0,8-3.6,8-8c0-4.4-3.6-8-8-8H181c-4.4,0-8,3.6-8,8C173,260.4,176.6,264,181,264z"/>
<path class="st0" d="M181,312.9h147.7c4.4,0,8-3.6,8-8s-3.6-8-8-8H181c-4.4,0-8,3.6-8,8S176.6,312.9,181,312.9z"/>
<path class="st0" d="M465.5,362.1H181c-4.4,0-8,3.6-8,8s3.6,8,8,8h284.5c4.4,0,8-3.6,8-8S469.9,362.1,465.5,362.1z"/>
<path class="st0" d="M384,411H181c-4.4,0-8,3.6-8,8s3.6,8,8,8h203c4.4,0,8-3.6,8-8S388.4,411,384,411z"/>
<path class="st0" d="M328.6,459.9H181c-4.4,0-8,3.6-8,8s3.6,8,8,8h147.6c4.4,0,8-3.6,8-8S333,459.9,328.6,459.9L328.6,459.9z"/>
</svg>
