<svg width="24" height="24" viewBox="0 0 24 24" fill="none" xmlns="http://www.w3.org/2000/svg">
<g clip-path="url(#clip0_2860_16)">
<path d="M22.6682 19.9556L18.7562 14.4036C19.3919 13.2239 19.7097 11.8991 19.6784 10.5593C19.6471 9.2196 19.2678 7.91105 18.5778 6.76228C17.8877 5.6135 16.9106 4.66402 15.7425 4.00715C14.5745 3.35028 13.2556 3.00862 11.9155 3.01573C10.5754 3.02285 9.26025 3.3785 8.09921 4.04774C6.93818 4.71698 5.97124 5.67677 5.29341 6.83281C4.61559 7.98885 4.2502 9.30136 4.23315 10.6414C4.2161 11.9813 4.54797 13.3027 5.19617 14.4756L1.33217 19.9556C1.26197 20.0535 1.22025 20.1689 1.21163 20.289C1.20302 20.4091 1.22784 20.5293 1.28335 20.6362C1.33886 20.7431 1.42289 20.8325 1.52612 20.8945C1.62934 20.9566 1.74774 20.9888 1.86817 20.9876H22.1322C22.2526 20.9888 22.371 20.9566 22.4742 20.8945C22.5774 20.8325 22.6615 20.7431 22.717 20.6362C22.7725 20.5293 22.7973 20.4091 22.7887 20.289C22.7801 20.1689 22.7384 20.0535 22.6682 19.9556ZM6.66817 13.7276L8.10817 15.7716L7.46817 16.6796L6.94817 16.1596C6.87465 16.0867 6.77571 16.0451 6.67217 16.0436C6.56862 16.0451 6.46968 16.0867 6.39617 16.1596L5.34417 17.2036L4.68017 16.5516L6.66817 13.7276ZM14.1002 7.72764L13.7722 8.16764C13.723 8.23577 13.6966 8.31764 13.6966 8.40164C13.6966 8.48564 13.723 8.56751 13.7722 8.63564L14.1002 9.07564H12.3482V7.72364L14.1002 7.72764ZM11.9522 11.6716L14.2282 14.9036L13.4482 15.6836L12.2722 14.5076C12.1978 14.4367 12.0989 14.3972 11.9962 14.3972C11.8934 14.3972 11.7946 14.4367 11.7202 14.5076L10.6122 15.6036L9.76817 14.7596L11.9522 11.6716ZM9.30817 15.4236L10.3322 16.4476C10.4066 16.5186 10.5054 16.5581 10.6082 16.5581C10.7109 16.5581 10.8098 16.5186 10.8842 16.4476L12.0002 15.3316L13.1762 16.5076C13.2506 16.5786 13.3494 16.6181 13.4522 16.6181C13.5549 16.6181 13.6538 16.5786 13.7282 16.5076L14.6882 15.5436L17.9762 20.2076H5.94017L9.30817 15.4236ZM15.8402 15.8236L17.3242 13.7196L19.3242 16.5436L18.6562 17.2036L17.6002 16.1596C17.5267 16.0867 17.4277 16.0451 17.3242 16.0436C17.2206 16.0451 17.1217 16.0867 17.0482 16.1596L16.4802 16.7316L15.8402 15.8236ZM5.01217 10.7436C5.01192 9.70388 5.24517 8.67734 5.6947 7.73978C6.14423 6.80222 6.79857 5.97758 7.60943 5.32672C8.42028 4.67586 9.36694 4.2154 10.3795 3.97933C11.3922 3.74325 12.4448 3.73759 13.4599 3.96275C14.475 4.18792 15.4266 4.63816 16.2444 5.28026C17.0622 5.92236 17.7254 6.73991 18.185 7.67258C18.6446 8.60525 18.8888 9.62922 18.8998 10.6689C18.9107 11.7086 18.688 12.7375 18.2482 13.6796L17.8482 13.1316C17.7846 13.0502 17.7032 12.9843 17.6104 12.939C17.5175 12.8936 17.4155 12.8701 17.3122 12.8701C17.2088 12.8701 17.1068 12.8936 17.014 12.939C16.9211 12.9843 16.8398 13.0502 16.7762 13.1316L15.3522 15.1516L12.4922 11.0716C12.4523 11.0184 12.4036 10.9724 12.3482 10.9356V9.85164H14.8842C14.9555 9.84893 15.0248 9.82719 15.0848 9.78868C15.1449 9.75017 15.1936 9.6963 15.2258 9.63264C15.2581 9.56898 15.2727 9.49786 15.2682 9.42664C15.2637 9.35543 15.2402 9.28672 15.2002 9.22764L14.5722 8.40364L15.2002 7.56764C15.24 7.50883 15.2635 7.44047 15.2682 7.36959C15.2729 7.2987 15.2586 7.22784 15.2269 7.1643C15.1951 7.10075 15.147 7.04682 15.0874 7.00804C15.0279 6.96926 14.9591 6.94703 14.8882 6.94364H11.9562C11.8501 6.94364 11.7483 6.98578 11.6733 7.06079C11.5983 7.13581 11.5562 7.23755 11.5562 7.34364V10.9436C11.4986 10.9792 11.4484 11.0253 11.4082 11.0796L8.57617 15.0796L7.20017 13.1316C7.13657 13.0502 7.05525 12.9843 6.96237 12.939C6.86949 12.8936 6.76751 12.8701 6.66417 12.8701C6.56082 12.8701 6.45884 12.8936 6.36596 12.939C6.27309 12.9843 6.19176 13.0502 6.12817 13.1316L5.69217 13.7476C5.24362 12.8098 5.01124 11.7832 5.01217 10.7436ZM4.22817 17.2036L5.06817 18.0436C5.14256 18.1146 5.24139 18.1541 5.34417 18.1541C5.44694 18.1541 5.54578 18.1146 5.62017 18.0436L6.67617 16.9916L7.01617 17.3316L5.16417 19.9596C5.11234 20.0355 5.07692 20.1213 5.06017 20.2116H2.10417L4.22817 17.2036ZM18.8522 20.2116C18.8369 20.1216 18.8028 20.0357 18.7522 19.9596L16.9362 17.3836L17.3362 16.9836L18.4002 18.0396C18.4746 18.1106 18.5734 18.1501 18.6762 18.1501C18.7789 18.1501 18.8778 18.1106 18.9522 18.0396L19.7922 17.1996L21.9162 20.2076L18.8522 20.2116Z" fill="white"/>
</g>
<defs>
<clipPath id="clip0_2860_16">
<rect width="24" height="24" fill="white"/>
</clipPath>
</defs>
</svg>
