<?xml version="1.0" encoding="utf-8"?>
<!-- Generator: Adobe Illustrator 26.1.0, SVG Export Plug-In . SVG Version: 6.00 Build 0)  -->
<svg version="1.1"
	 id="Layer_1" image-rendering="optimizeQuality" shape-rendering="geometricPrecision" text-rendering="geometricPrecision"
	 xmlns="http://www.w3.org/2000/svg" xmlns:xlink="http://www.w3.org/1999/xlink" x="0px" y="0px" viewBox="0 0 512 512"
	 style="enable-background:new 0 0 512 512;" xml:space="preserve">
<style type="text/css">
	.st0{fill-rule:evenodd;clip-rule:evenodd;fill:#FFFFFF;}
</style>
<g id="Layer_x0020_1">
	<path class="st0" d="M310.9,419.2c-4.9,0-8.8-3.9-8.8-8.8c0-4.9,3.9-8.8,8.8-8.8c11.1,0,20.1-9,20.1-20.1c0-11.1-9-20.1-20.1-20.1
		l-73,0.1c0,0,0,0,0,0c-1.4,0-2.8-0.3-4.1-1L170,327.5l-68.3,0c-4.9,0-8.8-3.9-8.8-8.8c0-4.9,3.9-8.8,8.8-8.8l70.5,0
		c1.4,0,2.8,0.3,4.1,1L240,344l70.9-0.1c20.8,0,37.7,16.9,37.7,37.7C348.5,402.3,331.6,419.2,310.9,419.2L310.9,419.2z"/>
	<path class="st0" d="M286.2,502.7h-41.3c-1.1,0-2.2-0.2-3.2-0.6l-109.8-42.3h-29.4c-4.9,0-8.8-3.9-8.8-8.8c0-4.9,3.9-8.8,8.8-8.8
		h31c1.1,0,2.2,0.2,3.2,0.6l109.8,42.3h37.8c8.4-3.7,25.7-9.9,47.1-17.7c50.9-18.5,127.8-46.4,154.7-64.7c7.9-5.4,10.6-16.3,6-24.4
		c-5-8.9-19.7-14.1-45.8-2.1c-0.2,0.1-0.5,0.2-0.7,0.3l-118.3,42.1c-0.9,0.3-1.9,0.5-2.9,0.5H211.7c-4.9,0-8.8-3.9-8.8-8.8
		c0-4.9,3.9-8.8,8.8-8.8h111.2l116.5-41.5c36.7-16.8,59.3-6.1,68.1,9.6c9.1,16.1,4.1,37-11.4,47.6c-28.7,19.5-103.8,46.8-158.6,66.7
		c-21.9,7.9-40.7,14.8-47.5,17.9C288.8,502.5,287.5,502.7,286.2,502.7L286.2,502.7z"/>
	<path class="st0" d="M101.7,489.8H8.8c-4.9,0-8.8-3.9-8.8-8.8V289.2c0-4.9,3.9-8.8,8.8-8.8h92.9c4.9,0,8.8,3.9,8.8,8.8V481
		C110.5,485.9,106.6,489.8,101.7,489.8z M17.6,472.2h75.4V298H17.6V472.2z"/>
	<path class="st0" d="M302.9,281.7c-75.1,0-136.2-61.1-136.2-136.2S227.8,9.3,302.9,9.3c75.1,0,136.2,61.1,136.2,136.2
		S378,281.7,302.9,281.7z M302.9,26.8c-65.4,0-118.6,53.2-118.6,118.6c0,65.4,53.2,118.6,118.6,118.6c65.4,0,118.6-53.2,118.6-118.6
		C421.5,80.1,368.3,26.8,302.9,26.8z"/>
	<path class="st0" d="M239.7,217.4c-2.2,0-4.5-0.9-6.2-2.6c-3.4-3.4-3.4-9,0-12.4L359.8,76.1c3.4-3.4,9-3.4,12.4,0
		c3.4,3.4,3.4,9,0,12.4L246,214.8C244.2,216.5,242,217.4,239.7,217.4L239.7,217.4z"/>
	<path class="st0" d="M262.5,135.9c-7.9,0-15.8-3-21.8-9c-12-12-12-31.6,0-43.6c5.8-5.8,13.6-9,21.8-9c8.2,0,16,3.2,21.8,9
		c12,12,12,31.6,0,43.6C278.3,132.9,270.4,135.9,262.5,135.9z M262.5,91.9c-3.5,0-6.9,1.4-9.4,3.9c-5.2,5.2-5.2,13.6,0,18.7
		c5.2,5.2,13.6,5.2,18.7,0c5.2-5.2,5.2-13.6,0-18.7C269.4,93.3,266.1,91.9,262.5,91.9z"/>
	<path class="st0" d="M343.2,216.6c-7.9,0-15.8-3-21.8-9c-5.8-5.8-9-13.6-9-21.8s3.2-16,9-21.8c5.8-5.8,13.6-9,21.8-9
		c8.2,0,16,3.2,21.8,9c12,12,12,31.6,0,43.6C359,213.6,351.1,216.6,343.2,216.6L343.2,216.6z M343.2,172.6c-3.5,0-6.9,1.4-9.4,3.9
		c-2.5,2.5-3.9,5.8-3.9,9.4c0,3.5,1.4,6.9,3.9,9.4c5.2,5.2,13.6,5.2,18.7,0c5.2-5.2,5.2-13.6,0-18.7
		C350,173.9,346.7,172.6,343.2,172.6L343.2,172.6z M327.6,170.2L327.6,170.2L327.6,170.2z"/>
</g>
</svg>
