<?xml version="1.0" encoding="utf-8"?>
<!-- Generator: Adobe Illustrator 26.1.0, SVG Export Plug-In . SVG Version: 6.00 Build 0)  -->
<svg version="1.1" id="svg5094" xmlns:svg="http://www.w3.org/2000/svg"
	 xmlns="http://www.w3.org/2000/svg" xmlns:xlink="http://www.w3.org/1999/xlink" x="0px" y="0px" viewBox="0 0 682.7 682.7"
	 style="enable-background:new 0 0 682.7 682.7;" xml:space="preserve">
<style type="text/css">
	.st0{fill:none;stroke:#FFFFFF;stroke-width:40;stroke-linecap:round;stroke-linejoin:round;stroke-miterlimit:13.3333;}
</style>
<g id="g5100" transform="matrix(1.3333333,0,0,-1.3333333,0,682.66667)">
	<g id="g5102" transform="translate(175.667,207.7998)">
		<path id="path5104" class="st0" d="M0,0h-48.2v96.4H0"/>
	</g>
	<g id="g5106" transform="translate(164.958,256)">
		<path id="path5108" class="st0" d="M0,0h-37.5"/>
	</g>
	<g id="g5110">
		<g>
			<g id="g5112">
				<g id="g5118" transform="translate(474.2812,310.8594)">
					<path id="path5120" class="st0" d="M0,0c14.5-14.5,22.7-34.3,22.7-54.9v0c0-20.6-8.2-40.3-22.7-54.9
						C-40.2-149.9-123.3-233-163.4-273.1c-14.5-14.5-34.3-22.7-54.9-22.7s-40.3,8.2-54.9,22.7c-40.2,40.2-123.3,123.3-163.4,163.4
						c-14.5,14.5-22.7,34.3-22.7,54.9v0c0,20.6,8.2,40.3,22.7,54.9c40.2,40.2,123.3,123.3,163.4,163.4
						c14.5,14.5,34.3,22.7,54.9,22.7s40.3-8.2,54.9-22.7C-123.3,123.3-40.2,40.2,0,0z"/>
				</g>
				<g id="g5122" transform="translate(400.5996,256)">
					<path id="path5124" class="st0" d="M0,0c0-26.6-21.6-48.2-48.2-48.2h-8v96.4h8C-21.6,48.2,0,26.6,0,0z"/>
				</g>
				<g id="g5126" transform="translate(223.8662,207.7998)">
					<path id="path5128" class="st0" d="M0,0v96.4L64.3,0v96.4"/>
				</g>
			</g>
		</g>
	</g>
</g>
</svg>
