<?xml version="1.0" encoding="utf-8"?>
<!-- Generator: Adobe Illustrator 26.1.0, SVG Export Plug-In . SVG Version: 6.00 Build 0)  -->
<svg version="1.1" id="Capa_1" xmlns="http://www.w3.org/2000/svg" xmlns:xlink="http://www.w3.org/1999/xlink" x="0px" y="0px"
	 viewBox="0 0 512 512" style="enable-background:new 0 0 512 512;" xml:space="preserve">
<style type="text/css">
	.st0{fill:none;stroke:#FFFFFF;stroke-width:15;stroke-linecap:round;stroke-linejoin:round;stroke-miterlimit:10;}
</style>
<g>
	<g>
		<g>
			<path class="st0" d="M90.1,95.5H17.5c-5.5,0-10,4.5-10,10v399"/>
			<path class="st0" d="M504.5,504.5v-399c0-5.5-4.5-10-10-10H336.8"/>
			<polyline class="st0" points="315.2,474.5 444.5,474.5 444.5,504.5 			"/>
			<polyline class="st0" points="67.5,504.5 67.5,474.5 280.2,474.5 			"/>
			<polyline class="st0" points="67.5,96.5 67.5,420.6 444.5,420.6 444.5,96.5 			"/>
		</g>
		<g>
			<path class="st0" d="M66.5,160.6h-24c-2.8,0-5-2.2-5-5v-20c0-2.8,2.2-5,5-5h24"/>
			<path class="st0" d="M66.5,225.6h-24c-2.8,0-5-2.2-5-5v-20c0-2.8,2.2-5,5-5h24"/>
			<path class="st0" d="M66.5,290.6h-24c-2.8,0-5-2.2-5-5v-20c0-2.8,2.2-5,5-5h24"/>
			<path class="st0" d="M66.5,355.6h-24c-2.8,0-5-2.2-5-5v-20c0-2.8,2.2-5,5-5h24"/>
			<path class="st0" d="M445.5,390.6h24c2.8,0,5,2.2,5,5v20c0,2.8-2.2,5-5,5h-25"/>
			<path class="st0" d="M67.5,420.6h-25c-2.8,0-5-2.2-5-5v-20c0-2.8,2.2-5,5-5h24"/>
			<path class="st0" d="M67.5,504.5h-25c-2.8,0-5-2.2-5-5v-20c0-2.8,2.2-5,5-5h25"/>
			<path class="st0" d="M445.5,130.6h24c2.8,0,5,2.2,5,5v20c0,2.8-2.2,5-5,5h-24"/>
			<path class="st0" d="M445.5,195.6h24c2.8,0,5,2.2,5,5v20c0,2.8-2.2,5-5,5h-24"/>
			<path class="st0" d="M445.5,260.6h24c2.8,0,5,2.2,5,5v20c0,2.8-2.2,5-5,5h-24"/>
			<path class="st0" d="M445.5,325.6h24c2.8,0,5,2.2,5,5v20c0,2.8-2.2,5-5,5h-24"/>
			<path class="st0" d="M444.5,474.5h25c2.8,0,5,2.2,5,5v20c0,2.8-2.2,5-5,5h-25"/>
		</g>
	</g>
	<g>
		<g>
			<path class="st0" d="M160.1,42.8c45-21.7,94.4-33.9,145-35.2l0,0c4.7-0.1,8.8,3,10,7.5l30.3,116.8c2.2,8.5,3.7,17.2,4.3,25.8"/>
			<path class="st0" d="M153.9,225.2c-4.2-6.2-8-12.8-11.2-19.7l-51.8-109c-2-4.2-0.8-9.2,2.8-12.1l0,0c11.5-9.2,23.6-17.5,36-25.1"
				/>
			<g>
				<g>
					<path class="st0" d="M240.5,106.7c0.1-2.3,0.8-4.5,2.1-6.5c11.5-17.1,32.6-24.8,52.4-19.1c6.6,1.9,10.5,8.8,8.6,15.5
						c-1.1,4-4.1,7-7.8,8.3c-2.4,0.9-5.1,1-7.7,0.3c-9.2-2.6-18.9,0.8-24.5,8.6"/>
				</g>
				<g>
					<path class="st0" d="M192.8,139.1c-9-2-18.3,1.7-23.5,9.4c-3.9,5.7-11.6,7.2-17.4,3.4c-5.7-3.9-7.2-11.6-3.4-17.4
						c11.5-17.1,32.6-24.8,52.4-19.1c0.8,0.2,1.5,0.5,2.2,0.8"/>
				</g>
			</g>
		</g>
		<g>
			<path class="st0" d="M383.9,269.5l30.4-42.6c2.7-3.8,2.4-9-0.7-12.4l0,0c-51.1-57.6-119.4-97.1-194.9-112.5l0,0
				c-4.6-0.9-9.2,1.4-11.1,5.6l-50.2,109.8c-21.3,46.7-17.3,101,10.6,144.1l0,0c10.2,15.8,27.4,25.7,46.2,26.6l0,0
				c51.2,2.7,100.3-21,130.1-62.8l19.4-27.3"/>
			<path class="st0" d="M209.5,339.2c11.4,7.2,25.8,9.6,39.8,5.4l52.1-15.8l0,0c-51.4-1.7-98.5-28.9-125.6-72.5l0,0l12.4,53
				c0.2,0.7,0.3,1.4,0.5,2.1"/>
			<g>
				<g>
					<path class="st0" d="M210.9,199.5c2.2,1.3,4.8,1.9,7.6,1.6c9.7-1,18.9,4.3,22.8,13.2c2.8,6.3,10.2,9.1,16.5,6.3
						c6.3-2.8,9.1-10.2,6.3-16.5c-8.4-18.8-27.8-30-48.3-27.9c-6.9,0.7-11.9,6.9-11.1,13.7C205.1,194.1,207.5,197.5,210.9,199.5z"/>
				</g>
				<g>
					<path class="st0" d="M297.5,249.5c2.2,1.3,4.8,1.9,7.6,1.6c9.7-1,18.9,4.3,22.8,13.2c2.8,6.3,10.2,9.1,16.5,6.3
						c6.3-2.8,9.1-10.2,6.3-16.5c-8.4-18.8-27.8-30-48.3-27.9c-6.9,0.7-11.9,6.9-11.1,13.7C291.7,244.1,294.2,247.6,297.5,249.5z"/>
				</g>
			</g>
			<path class="st0" d="M235.4,268c5.2,9.5,15.2,15.3,26,15"/>
		</g>
	</g>
</g>
</svg>
