<svg width="232" height="232" viewBox="0 0 232 232" fill="none" xmlns="http://www.w3.org/2000/svg">
<path d="M34.9351 211.956C29.899 211.956 26.0423 210.522 23.365 207.653C20.7513 204.785 19.4445 200.737 19.4445 195.509V159.556C19.4445 154.329 20.7513 150.281 23.365 147.412C26.0423 144.544 29.899 143.109 34.9351 143.109C39.9711 143.109 43.7959 144.544 46.4095 147.412C49.0869 150.281 50.4256 154.329 50.4256 159.556V166.632H40.481V158.887C40.481 154.743 38.728 152.671 35.2219 152.671C31.7158 152.671 29.9628 154.743 29.9628 158.887V196.274C29.9628 200.354 31.7158 202.394 35.2219 202.394C38.728 202.394 40.481 200.354 40.481 196.274V186.043H50.4256V195.509C50.4256 200.737 49.0869 204.785 46.4095 207.653C43.7959 210.522 39.9711 211.956 34.9351 211.956ZM56.7186 144.066H67.2369V171.317H78.5201V144.066H89.0384V211H78.5201V180.88H67.2369V211H56.7186V144.066ZM105 144.066H119.247L130.148 211H119.629L117.717 197.709V197.9H105.764L103.852 211H94.0988L105 144.066ZM116.474 188.816L111.789 155.731H111.597L107.008 188.816H116.474ZM135.251 144.066H145.769V201.438H163.076V211H135.251V144.066ZM168.12 144.066H178.639V201.438H195.946V211H168.12V144.066ZM200.99 144.066H229.676V153.628H211.508V171.317H225.947V180.88H211.508V201.438H229.676V211H200.99V144.066Z" fill="black"/>
<path d="M173.319 62.2561C174.379 58.2714 175.347 54.6335 176.37 50.7922C183.699 51.3756 189.942 54.304 195.287 59.0447C202.303 65.268 206.348 73.0999 207.22 82.523C207.317 83.5754 207.926 85.3546 208.513 85.4476C210.423 85.7519 212.445 85.5077 214.391 85.2499C214.636 85.217 214.859 83.8331 214.83 83.085C213.973 62.0662 196.231 44.0398 175.376 42.9583C171.357 42.7509 169.007 44.7201 168.553 48.6719C166.238 68.8651 152.673 81.3427 132.294 81.7652C129.165 81.8311 129.32 83.4979 129.315 85.5988C129.309 87.7559 129.32 89.3936 132.395 89.3568C146.845 89.1901 158.555 83.5289 167.502 72.2432C168.763 70.654 170.04 70.028 172.022 70.0609C181.111 70.2043 187.282 76.3326 187.792 85.872C188.523 99.5493 198.542 108.885 212.073 108.771C214.994 108.746 215.066 107.265 214.981 105.181C214.897 103.145 215.533 101.078 212.028 101.049C201.696 100.968 195.845 95.0258 195.372 84.6355C194.858 73.3693 186.685 64.3377 175.544 62.7135C174.872 62.6147 174.212 62.4402 173.319 62.2561Z" fill="black"/>
<path d="M70.6529 50.8155C71.6901 54.6975 72.642 58.2559 73.6851 62.165C72.8902 62.353 72.0817 62.5992 71.2539 62.731C60.0943 64.5102 52.1124 73.5088 51.6452 84.8545C51.2303 94.9541 45.2124 101.015 35.0823 101.053C31.6856 101.067 32.0985 102.953 32.0132 105.096C31.9221 107.41 32.2343 108.751 35.1696 108.765C48.3997 108.831 58.4309 99.5571 59.2199 86.25C59.8152 76.2144 65.8583 70.1539 75.2187 70.0357C77.1303 70.0125 78.2703 70.7005 79.449 72.1812C88.41 83.4397 100.083 89.1688 114.545 89.3471C117.561 89.3839 117.722 87.9245 117.713 85.6802C117.703 83.4262 117.817 81.7846 114.525 81.7536C94.6276 81.5578 80.5018 68.5259 78.4661 48.7882C78.0531 44.7821 75.7072 42.7393 71.7618 42.9525C50.7727 44.0863 33.2928 61.7813 32.1412 82.9707C32.0249 85.1181 32.7345 85.7907 34.8283 85.7422C39.9971 85.624 39.5066 85.9399 39.9738 81.1489C41.3911 66.6266 53.4987 53.6335 67.83 51.079C68.7005 50.924 69.5982 50.9104 70.649 50.8155H70.6529Z" fill="black"/>
<path d="M76.6113 100.738C77.3007 97.3227 77.8177 94.1162 78.6814 91.0055C78.8557 90.3795 80.4068 89.6424 81.2111 89.7573C94.9721 91.7214 106.753 103.154 109.342 117.077C109.844 119.774 109.951 122.565 110.006 125.318C110.072 128.54 112.412 127.498 114.068 127.625C115.751 127.753 117.31 127.902 117.452 125.247C118.622 103.204 99.9854 82.7011 77.9231 81.9028C74.2272 81.7688 71.7741 83.9435 71.5041 87.5903C70.1368 106.064 55.6692 119.805 37.1572 120.214C33.4479 120.297 31.6344 123.149 33.3234 126.581C33.6413 127.226 35.0986 127.619 36.0254 127.611C50.133 127.485 61.7454 122.085 70.3513 110.809C71.9081 108.77 73.511 108.202 75.8587 108.401C84.4493 109.13 90.3474 115.294 90.7208 123.943C90.7725 125.124 91.0789 127.19 91.5921 127.297C93.465 127.688 95.4967 127.571 97.4136 127.286C97.81 127.226 98.193 125.632 98.2198 124.734C98.5588 113.639 90.9544 103.918 80.0908 101.471C78.9552 101.215 77.812 100.991 76.6171 100.742L76.6113 100.738Z" fill="black"/>
<path d="M168.07 89.4796C168.892 93.4402 169.627 96.9815 170.4 100.714C168.733 101.08 167.187 101.346 165.684 101.761C155.709 104.518 148.81 113.794 148.732 124.238C148.712 126.735 149.344 127.877 152.046 127.701C154.344 127.55 156.408 128.094 156.435 124.422C156.506 114.903 162.978 108.549 172.147 108.339C174.025 108.295 175.186 108.915 176.331 110.431C184.58 121.357 195.648 126.985 209.299 127.607C213.989 127.822 214.041 127.782 213.916 122.975C213.897 122.202 213.782 121.432 213.698 120.508C211.343 120.343 209.093 120.224 206.85 120.023C190.149 118.521 176.748 104.853 175.561 88.1243C175.245 83.6794 172.959 81.6886 168.455 81.9356C146.556 83.1358 128.359 103.488 129.587 125.278C129.782 128.743 132.198 127.383 133.88 127.63C136.09 127.958 137.068 127.108 137.026 124.679C136.833 113.283 141.252 103.905 150.062 96.7422C155.194 92.5692 161.096 89.9658 168.066 89.4758L168.07 89.4796Z" fill="black"/>
<path d="M129.632 21.0926C129.665 32.8822 139.037 42.0901 150.92 42.0087C162.463 41.9293 171.864 32.3782 171.744 20.8523C171.624 9.34958 162.052 -0.0464001 150.528 0.0253101C138.919 0.0989584 129.599 9.49494 129.63 21.0926H129.632ZM150.295 7.70024C158.07 7.61109 163.979 13.2704 164.061 20.8833C164.14 28.3082 158.303 34.4326 150.997 34.5896C143.324 34.7544 137.135 28.7482 137.102 21.1023C137.069 13.5437 142.736 7.78746 150.293 7.70024H150.295Z" fill="black"/>
<path d="M117.381 20.9898C117.372 9.43478 107.959 0.0232996 96.3884 4.22147e-05C84.9051 -0.0232152 75.2364 9.56657 75.2752 20.9394C75.314 32.6941 84.7519 42.0629 96.495 42.0067C108.147 41.9505 117.391 32.6476 117.381 20.9879V20.9898ZM96.5357 7.69436C104.068 7.68273 109.896 13.4331 109.927 20.9104C109.96 28.4787 104.037 34.5237 96.5222 34.5915C89.0443 34.6593 83.0148 28.6551 82.9527 21.0809C82.8907 13.5397 88.8097 7.70598 96.5357 7.69436Z" fill="black"/>
<path d="M113.275 69.9156C117.284 69.7877 119.244 66.8185 117.461 63.2253C117.182 62.6613 116.036 62.293 115.264 62.2427C104.669 61.5585 100.801 58.3761 98.0362 48.1448C97.852 47.4626 96.8633 46.761 96.1071 46.5284C95.192 46.2455 94.118 46.5362 93.1273 46.4315C90.5022 46.1524 90.4653 47.7397 90.6689 49.6313C91.6247 58.5002 98.771 66.6964 107.676 68.9815C109.502 69.4505 111.406 69.6133 113.273 69.9156H113.275Z" fill="black"/>
<path d="M133.859 69.7276C145.156 69.4621 154.736 61.0274 156.238 49.9802C156.409 48.7282 157.369 46.8715 154.864 46.4567C150.976 45.8132 149.309 46.4644 148.797 48.9549C147.167 56.9109 141.339 61.9946 133.617 62.2C129.233 62.3163 129.439 62.324 129.284 66.7119C129.142 70.7238 131.874 69.5513 133.859 69.7296V69.7276Z" fill="black"/>
<path fill-rule="evenodd" clip-rule="evenodd" d="M16.344 226.31C12.4825 227.297 8.55203 224.966 7.56521 221.105C6.57839 217.243 8.90893 213.313 12.7706 212.326C16.6324 211.339 20.5626 213.67 21.5494 217.531C22.5358 221.393 20.2057 225.323 16.344 226.31Z" fill="black"/>
<path fill-rule="evenodd" clip-rule="evenodd" d="M17.11 208.333C15.0985 208.846 13.0513 207.633 12.5377 205.621C12.0236 203.61 13.2376 201.563 15.2488 201.048C17.2602 200.535 19.3078 201.748 19.8215 203.76C20.3352 205.771 19.1216 207.818 17.11 208.333Z" fill="black"/>
<path fill-rule="evenodd" clip-rule="evenodd" d="M29.9508 207.023C28.7907 207.32 27.6094 206.62 27.3131 205.46C27.0166 204.299 27.7171 203.118 28.8771 202.822C30.0375 202.526 31.2182 203.226 31.5147 204.386C31.8116 205.546 31.1112 206.727 29.9508 207.023Z" fill="black"/>
<path fill-rule="evenodd" clip-rule="evenodd" d="M32.1401 221.974C29.3586 222.685 26.5277 221.006 25.817 218.225C25.1063 215.443 26.7851 212.612 29.5663 211.902C32.3478 211.191 35.1787 212.869 35.8894 215.651C36.6001 218.432 34.9217 221.263 32.1401 221.974Z" fill="black"/>
<path fill-rule="evenodd" clip-rule="evenodd" d="M186.127 136.875C185.615 133.302 188.097 129.99 191.67 129.478C195.243 128.966 198.555 131.448 199.067 135.021C199.579 138.595 197.097 141.906 193.524 142.418C189.951 142.93 186.639 140.449 186.127 136.875Z" fill="black"/>
<path fill-rule="evenodd" clip-rule="evenodd" d="M202.239 139.318C201.973 137.456 203.265 135.731 205.126 135.465C206.988 135.198 208.713 136.491 208.98 138.352C209.246 140.213 207.953 141.938 206.092 142.205C204.231 142.471 202.506 141.179 202.239 139.318Z" fill="black"/>
<path fill-rule="evenodd" clip-rule="evenodd" d="M202.166 151.007C202.012 149.934 202.758 148.938 203.832 148.785C204.905 148.631 205.9 149.377 206.054 150.45C206.208 151.524 205.462 152.519 204.389 152.672C203.315 152.827 202.32 152.081 202.166 151.007Z" fill="black"/>
<path fill-rule="evenodd" clip-rule="evenodd" d="M188.491 151.521C188.122 148.947 189.91 146.562 192.484 146.193C195.057 145.824 197.442 147.612 197.811 150.186C198.18 152.759 196.393 155.145 193.819 155.513C191.245 155.882 188.86 154.095 188.491 151.521Z" fill="black"/>
</svg>
