<svg width="24" height="24" viewBox="0 0 24 24" fill="none" xmlns="http://www.w3.org/2000/svg">
<path d="M14.8561 14.9496C14.7601 14.9496 14.6641 14.9256 14.5921 14.8536L8.18409 8.44556C8.13609 8.39756 8.08809 8.32556 8.08809 8.25356L7.58409 5.10956C7.56009 4.98956 7.60809 4.86956 7.68009 4.79756C7.75209 4.72556 7.87209 4.67756 7.99209 4.70156L11.1361 5.20556C11.2081 5.20556 11.2801 5.25356 11.3281 5.30156L17.7601 11.7336C17.8321 11.8056 17.8561 11.9016 17.8561 11.9976C17.8561 12.0936 17.8081 12.1896 17.7601 12.2616L15.1201 14.9016C15.0481 14.9256 14.9521 14.9496 14.8561 14.9496ZM8.78409 8.01356L14.8561 14.0856L16.9921 11.9496L10.8961 5.87756L8.37609 5.46956L8.78409 8.01356ZM15.5041 18.1416C15.4321 18.1416 15.3601 18.1176 15.2881 18.0696L13.0801 16.4616C12.9841 16.3896 12.9361 16.2936 12.9361 16.1976C12.9361 16.1016 12.9601 15.9816 13.0321 15.9096L18.8161 10.1256C18.8881 10.0536 18.9841 10.0056 19.1041 10.0296C19.2001 10.0296 19.2961 10.1016 19.3681 10.1736L20.9761 12.3816C21.0721 12.5256 21.0721 12.7176 20.9281 12.8376L15.7681 18.0216C15.6961 18.0936 15.6001 18.1416 15.5041 18.1416ZM13.8481 16.1256L15.4801 17.3016L20.2081 12.5736L19.0321 10.9416L13.8481 16.1256ZM19.0801 18.1656C18.9841 18.1656 18.8881 18.1416 18.8161 18.0696L17.0161 16.2696C16.9441 16.1976 16.9201 16.1016 16.9201 16.0056C16.9201 15.9096 16.9681 15.8136 17.0161 15.7416L18.6241 14.1336C18.6961 14.0616 18.7921 14.0376 18.8881 14.0376C18.9841 14.0376 19.0801 14.0856 19.1521 14.1336L20.9521 15.9336C21.0961 16.0776 21.0961 16.2936 20.9521 16.4376L19.3441 18.0456C19.2721 18.1176 19.1761 18.1656 19.0801 18.1656ZM17.7841 16.0056L19.0801 17.3016L20.1841 16.1976L18.8881 14.9016L17.7841 16.0056ZM20.2321 19.3176C20.1361 19.3176 20.0401 19.2936 19.9681 19.2216L18.8161 18.0696C18.6721 17.9256 18.6721 17.7096 18.8161 17.5656L20.4241 15.9576C20.5681 15.8136 20.7841 15.8136 20.9281 15.9576L22.0801 17.1096C22.2241 17.2536 22.2241 17.4696 22.0801 17.6136L20.4721 19.1976C20.4001 19.2696 20.3281 19.3176 20.2321 19.3176ZM19.5841 17.8056L20.2321 18.4536L21.3361 17.3496L20.6881 16.7016L19.5841 17.8056ZM9.14409 14.9496C9.04809 14.9496 8.95209 14.9256 8.88009 14.8536L6.24009 12.2136C6.16809 12.1416 6.14409 12.0456 6.14409 11.9496C6.14409 11.8536 6.19209 11.7576 6.24009 11.6856L9.12009 8.85356C9.26409 8.70956 9.48009 8.70956 9.62409 8.85356L12.2641 11.4936C12.4081 11.6376 12.4081 11.8536 12.2641 11.9976L9.40809 14.8536C9.33609 14.9256 9.24009 14.9496 9.14409 14.9496ZM7.00809 11.9736L9.14409 14.1096L11.4961 11.7576L9.36009 9.62155L7.00809 11.9736ZM14.6401 9.47756C14.5441 9.47756 14.4481 9.45355 14.3761 9.38155L11.7361 6.74156C11.5921 6.59756 11.5921 6.38156 11.7361 6.23756L12.6721 5.30156C12.7201 5.25356 12.7921 5.20556 12.8641 5.20556L16.0081 4.70156C16.1281 4.67756 16.2481 4.72556 16.3201 4.79756C16.3921 4.86956 16.4401 4.98956 16.4161 5.10956L15.9121 8.25356C15.9121 8.32556 15.8641 8.39756 15.8161 8.44556L14.8801 9.35756C14.8081 9.42956 14.7361 9.47756 14.6401 9.47756ZM12.5041 6.47756L14.6401 8.61356L15.2401 8.01356L15.6481 5.49356L13.1281 5.90156L12.5041 6.47756ZM8.49609 18.1416C8.40009 18.1416 8.30409 18.1176 8.23209 18.0456L3.09609 12.8616C2.97609 12.7416 2.95209 12.5496 3.04809 12.4056L4.65609 10.1976C4.72809 10.1016 4.82409 10.0536 4.92009 10.0536C5.01609 10.0536 5.13609 10.0776 5.20809 10.1496L10.9921 15.9336C11.0641 16.0056 11.1121 16.1016 11.0881 16.2216C11.0881 16.3176 11.0161 16.4136 10.9441 16.4856L8.73609 18.0936C8.64009 18.1176 8.56809 18.1416 8.49609 18.1416ZM3.81609 12.5736L8.54409 17.3016L10.1761 16.1256L4.99209 10.9416L3.81609 12.5736ZM4.92009 18.1656C4.82409 18.1656 4.72809 18.1416 4.65609 18.0696L3.04809 16.4616C2.90409 16.3176 2.90409 16.1016 3.04809 15.9576L4.84809 14.1576C4.92009 14.0856 5.01609 14.0616 5.11209 14.0616C5.20809 14.0616 5.30409 14.1096 5.37609 14.1576L6.98409 15.7656C7.05609 15.8376 7.08009 15.9336 7.08009 16.0296C7.08009 16.1256 7.03209 16.2216 6.98409 16.2936L5.18409 18.0936C5.11209 18.1176 5.01609 18.1656 4.92009 18.1656ZM3.81609 16.1976L4.92009 17.3016L6.21609 16.0056L5.11209 14.9016L3.81609 16.1976ZM3.76809 19.3176C3.67209 19.3176 3.57609 19.2936 3.50409 19.2216L1.89609 17.6136C1.75209 17.4696 1.75209 17.2536 1.89609 17.1096L3.04809 15.9576C3.19209 15.8136 3.40809 15.8136 3.55209 15.9576L5.16009 17.5656C5.30409 17.7096 5.30409 17.9256 5.16009 18.0696L4.03209 19.1976C3.96009 19.2696 3.86409 19.3176 3.76809 19.3176ZM2.66409 17.3256L3.76809 18.4296L4.41609 17.7816L3.31209 16.6776L2.66409 17.3256Z" fill="white"/>
</svg>
