<?xml version="1.0" encoding="utf-8"?>
<!-- Generator: Adobe Illustrator 26.1.0, SVG Export Plug-In . SVG Version: 6.00 Build 0)  -->
<svg version="1.1" id="Layer_1" xmlns="http://www.w3.org/2000/svg" xmlns:xlink="http://www.w3.org/1999/xlink" x="0px" y="0px"
	 viewBox="0 0 512 512" style="enable-background:new 0 0 512 512;" xml:space="preserve">
<style type="text/css">
	.st0{fill:#FFFFFF;}
</style>
<g>
	<g>
		<path class="st0" d="M373.1,480.2c-4.7,0-7.8,3.1-7.8,7.8v8.5H15.5V97h78.4c-3.9,12.4-3.1,20.9-3.1,29.5c0,4.7,3.1,7.8,7.8,7.8
			h184.6c4.7,0,7.8-3.1,7.8-7.8c0-8.5,0.8-17.1-3.1-29.5h78.4v53.5c0,4.7,3.1,7.8,7.8,7.8c4.7,0,7.8-3.1,7.8-7.8V89.2
			c0-4.7-3.1-7.8-7.8-7.8h-93.1c-7.8-14-20.2-24.8-35.7-32.6c-1.6-27.2-25.6-49.6-54.3-49.6s-52.8,21.7-54.3,49.6
			c-15.5,7-27.2,18.6-35.7,32.6H7.8c-4.7,0-7.8,3.1-7.8,7.8v415c0,4.7,3.1,7.8,7.8,7.8h365.4c4.7,0,7.8-3.1,7.8-7.8V488
			C380.9,484.1,377,480.2,373.1,480.2L373.1,480.2z M146.6,61.3c3.1-1.6,5.4-4.7,4.7-9.3c0-20.2,17.1-36.5,38.8-36.5
			s38.8,16.3,38.8,36.5c-0.8,4.7,1.6,7.8,4.7,9.3c24.8,9.3,40.3,31.8,41.1,57.4H106.3C106.3,93.9,122.6,71.4,146.6,61.3z"/>
	</g>
	<g>
		<path class="st0" d="M190.1,90.8c16.3,0,30.3-13.2,30.3-30.3s-13.2-30.3-30.3-30.3c-16.3,0-30.3,13.2-30.3,30.3
			S173.8,90.8,190.1,90.8z M190.1,45.8c7.8,0,14.7,6.2,14.7,14.7s-6.2,14.7-14.7,14.7c-7.8,0-14.7-6.2-14.7-14.7
			S182.3,45.8,190.1,45.8z"/>
	</g>
	<g>
		<path class="st0" d="M114,180.8c0-4.7-3.1-7.8-7.8-7.8H53.5c-4.7,0-7.8,3.1-7.8,7.8v56.6c0,4.7,3.1,7.8,7.8,7.8h52.8
			c4.7,0,7.8-3.1,7.8-7.8V180.8z M98.5,228.8H61.3v-41.1h37.2V228.8z"/>
	</g>
	<g>
		<path class="st0" d="M114,284.7c0-4.7-3.1-7.8-7.8-7.8H53.5c-4.7,0-7.8,3.1-7.8,7.8v56.6c0,4.7,3.1,7.8,7.8,7.8h52.8
			c4.7,0,7.8-3.1,7.8-7.8V284.7z M98.5,333.6H61.3v-41.1h37.2V333.6z"/>
	</g>
	<g>
		<path class="st0" d="M106.3,381.7H53.5c-4.7,0-7.8,3.1-7.8,7.8v56.6c0,4.7,3.1,7.8,7.8,7.8h52.8c4.7,0,7.8-3.1,7.8-7.8v-56.6
			C114,384.8,110.2,381.7,106.3,381.7z M98.5,438.3H61.3v-41.1h37.2V438.3z"/>
	</g>
	<g>
		<path class="st0" d="M507.3,248.2l-141.2-76.8c-2.3-1.6-5.4-1.6-7,0c-9.3,4.7-121.8,65.2-140.4,75.2c-2.3,1.6-3.9,4.7-3.9,7v124.1
			c0,2.3,1.6,5.4,3.9,6.2l140.4,88.4c2.3,1.6,5.4,1.6,7.8,0l141.2-75.2c2.3-1.6,3.9-3.9,3.9-7v-135
			C512,252.9,510.4,249.8,507.3,248.2z M363.1,187l125.7,68.3l-32.6,17.8l-125.7-69L363.1,187z M425.1,294l-130.3-70.6l18.6-10.1
			L447.6,287v38L429,335.1V301C429,297.9,427.4,294.8,425.1,294L425.1,294z M278.5,232l126.4,69l-41.9,23.3l-124.9-70.6L278.5,232z
			 M229.6,372.4V266.1l124.9,70.6v114.8L229.6,372.4z M370.8,452.3V337.5l42.7-23.3v34.1c0,3.1,1.6,5.4,3.9,7s5.4,1.6,7.8,0
			l34.1-18.6c2.3-1.6,3.9-3.9,3.9-7V287l33.4-17.8v117.1L370.8,452.3z"/>
	</g>
	<g>
		<path class="st0" d="M254.4,208.7c0-4.7-3.1-7.8-7.8-7.8H135.8c-4.7,0-7.8,3.1-7.8,7.8c0,4.7,3.1,7.8,7.8,7.8h110.9
			C250.6,216.4,254.4,213.3,254.4,208.7z"/>
	</g>
	<g>
		<path class="st0" d="M199.4,305.6H135c-4.7,0-7.8,3.1-7.8,7.8s3.1,7.8,7.8,7.8h64.4c4.7,0,7.8-3.1,7.8-7.8
			S203.2,305.6,199.4,305.6z"/>
	</g>
	<g>
		<path class="st0" d="M122.6,417.4c0,4.7,3.1,7.8,7.8,7.8H232c4.7,0,7.8-3.1,7.8-7.8s-3.1-7.8-7.8-7.8H130.3
			C126.4,409.6,122.6,413.5,122.6,417.4z"/>
	</g>
</g>
</svg>
