<svg width="24" height="24" viewBox="0 0 24 24" fill="none" xmlns="http://www.w3.org/2000/svg">
<path d="M9.66533 6.79063V5.78281C9.84346 5.825 10.0216 5.90469 10.2044 6.0125C10.256 6.04531 10.3075 6.05937 10.3638 6.05937C10.5278 6.05937 10.6591 5.93281 10.6591 5.76875C10.6591 5.64219 10.5841 5.56719 10.4997 5.51562C10.256 5.36562 9.99814 5.2625 9.68877 5.225V5.10781C9.68877 4.98125 9.59033 4.88281 9.46377 4.88281C9.33721 4.88281 9.23408 4.98125 9.23408 5.10781V5.21562C9.02783 5.23437 8.84033 5.28125 8.68564 5.36094C8.48877 5.45938 8.33877 5.6 8.24502 5.77344C8.17471 5.90469 8.13721 6.05469 8.13721 6.21875C8.13721 6.45781 8.19814 6.65 8.31533 6.80469C8.49346 7.02969 8.80283 7.17969 9.25752 7.30156V8.33281C8.96689 8.28125 8.72783 8.15937 8.47939 7.98125C8.43252 7.94375 8.36689 7.925 8.30596 7.925C8.14189 7.925 8.02002 8.05156 8.02002 8.21094C8.02002 8.31875 8.07158 8.40313 8.16064 8.46406C8.47939 8.68906 8.84033 8.82969 9.23408 8.87187V9.19531C9.23408 9.32188 9.33721 9.42031 9.46377 9.42031C9.59033 9.42031 9.68877 9.32188 9.68877 9.19531V8.88125C10.3544 8.82031 10.8044 8.43594 10.8044 7.85938C10.8044 7.68594 10.7716 7.53594 10.706 7.40469C10.5513 7.12344 10.2185 6.92656 9.66533 6.79063ZM9.25283 6.68281C9.17314 6.65469 9.10283 6.63125 9.04189 6.60313C8.81221 6.49531 8.74658 6.37344 8.74658 6.19531C8.74658 5.96563 8.91533 5.7875 9.24814 5.75469V6.68281H9.25283ZM9.66533 8.36562V7.40938C9.67471 7.41406 9.68408 7.41406 9.68877 7.41875C10.0731 7.54062 10.181 7.68125 10.181 7.91094C10.1856 8.15937 10.0028 8.32812 9.66533 8.36562Z" fill="white"/>
<path d="M20.6765 10.2938C20.8031 10.2938 20.9203 10.2188 20.9718 10.1063C21.0234 9.99375 21.0093 9.85781 20.9296 9.75938L18.5765 6.87188L16.5656 4.40625C16.5046 4.33125 16.4109 4.28438 16.3124 4.28438C16.214 4.28438 16.1203 4.32656 16.0593 4.40625L14.7374 6.02813C14.2124 3.51094 11.9718 1.64062 9.33275 1.64062C6.28588 1.64062 3.81088 4.11563 3.81088 7.1625C3.81088 10.2094 6.29057 12.6844 9.33275 12.6844C10.8609 12.6844 12.2859 12.0656 13.3171 10.9828C12.989 11.9625 12.389 12.8344 11.564 13.4953C10.4343 14.4047 9.01869 14.8172 7.57963 14.6578C6.14057 14.4984 4.84682 13.7906 3.93744 12.6609C3.81557 12.5109 3.70307 12.3563 3.60463 12.1969C3.51557 12.0563 3.33275 12.0047 3.18275 12.0797C3.03275 12.1547 2.96244 12.3281 3.02338 12.4875C3.33275 13.3219 3.77338 14.1 4.33588 14.7984C4.98275 15.6047 5.76088 16.275 6.64682 16.7859C7.46244 17.2547 8.34369 17.5828 9.27182 17.7563C9.77338 17.85 10.2843 17.8969 10.7953 17.8969C11.0109 17.8969 11.2218 17.8875 11.4374 17.8734C12.3468 17.8031 13.2281 17.5828 14.0624 17.2219C14.7421 16.9266 15.3843 16.5422 15.9703 16.0734C16.0546 16.0078 16.139 15.9375 16.2281 15.8578C17.5499 14.7047 18.4593 13.1906 18.8531 11.4797C18.9421 11.0906 19.0031 10.6922 19.0359 10.2938H20.6765ZM9.32807 10.2938C7.60307 10.2938 6.19682 8.8875 6.19682 7.1625C6.19682 5.4375 7.60307 4.03125 9.32807 4.03125C11.0531 4.03125 12.4593 5.4375 12.4593 7.1625C12.4593 8.8875 11.0531 10.2938 9.32807 10.2938ZM9.32807 12.0281C6.64682 12.0281 4.46244 9.84375 4.46244 7.1625C4.46244 4.48125 6.64682 2.29688 9.32807 2.29688C11.8453 2.29688 13.9453 4.22813 14.1749 6.71719L13.4718 7.575L12.9749 8.18438C13.0687 7.86094 13.1156 7.51406 13.1156 7.1625C13.1156 5.07188 11.414 3.375 9.32807 3.375C7.24213 3.375 5.54057 5.07656 5.54057 7.1625C5.54057 9.24844 7.24213 10.95 9.32807 10.95C10.2093 10.95 11.0203 10.6453 11.6671 10.1391C11.7281 10.2375 11.8312 10.2938 11.9437 10.2938H13.0499C12.1312 11.3906 10.7765 12.0281 9.32807 12.0281ZM18.7265 9.6375C18.5531 9.6375 18.4078 9.77344 18.3984 9.95156C18.3796 10.4156 18.314 10.8797 18.2109 11.3344C17.8499 12.9094 17.0109 14.3016 15.7921 15.3656C15.7078 15.4406 15.6281 15.5063 15.5531 15.5672C15.014 15.9984 14.4234 16.3547 13.7953 16.6266C13.0265 16.9594 12.2156 17.1609 11.3765 17.2219C10.7109 17.2734 10.0406 17.2359 9.38432 17.1141C8.5265 16.9547 7.71557 16.6547 6.96557 16.2234C6.14994 15.75 5.43275 15.1359 4.83744 14.3953C4.82338 14.3766 4.80463 14.3578 4.79057 14.3344C5.59213 14.8688 6.51557 15.2109 7.50463 15.3188C9.12182 15.4969 10.7062 15.0328 11.9718 14.0156C13.214 13.0172 14.0062 11.5969 14.2031 10.0125C14.2124 9.91875 14.1843 9.825 14.1234 9.75469C14.0624 9.68438 13.9734 9.64219 13.8796 9.64219H13.7015H12.6374L16.3124 5.1375L18.0703 7.29375L19.9874 9.64688H18.7265V9.6375Z" fill="white"/>
<path d="M9.16377 18.3081C8.39033 18.1628 7.64502 17.919 6.94658 17.5862C6.84346 17.5393 6.72627 17.544 6.62783 17.605C6.53408 17.6659 6.47314 17.769 6.47314 17.8815V22.0347C6.47314 22.2175 6.61846 22.3628 6.80127 22.3628H9.32783C9.51064 22.3628 9.65596 22.2175 9.65596 22.0347V18.669C9.65596 18.5097 9.53877 18.369 9.37939 18.3456C9.30439 18.3315 9.23408 18.3222 9.16377 18.3081ZM8.99971 21.7065H7.13408V18.3878C7.73408 18.6362 8.35752 18.8237 8.99971 18.9456V21.7065Z" fill="white"/>
<path d="M13.8142 17.9267C13.0595 18.2033 12.272 18.372 11.4704 18.433C11.4423 18.433 11.4142 18.4376 11.386 18.4376C11.2126 18.447 11.0767 18.5923 11.0767 18.7658V22.033C11.0767 22.2158 11.222 22.3611 11.4048 22.3611H13.9267C14.1095 22.3611 14.2548 22.2158 14.2548 22.033V18.2361C14.2548 18.1283 14.2032 18.0298 14.1142 17.9689C14.0298 17.9033 13.9173 17.8892 13.8142 17.9267ZM13.5985 21.7095H11.7329V19.0705C12.3657 19.0095 12.9938 18.883 13.5985 18.6908V21.7095Z" fill="white"/>
<path d="M18.6234 14.2092C18.4828 14.167 18.3328 14.2232 18.2531 14.3498C17.7984 15.067 17.2406 15.7138 16.5938 16.2763C16.4906 16.3654 16.4016 16.4404 16.3172 16.506C16.1531 16.6373 15.9891 16.7592 15.8203 16.8764C15.7313 16.9373 15.6797 17.0404 15.6797 17.1435V22.0232C15.6797 22.206 15.825 22.3513 16.0078 22.3513H18.5297C18.7125 22.3513 18.8578 22.206 18.8578 22.0232V14.5232C18.8578 14.3779 18.7641 14.2514 18.6234 14.2092ZM18.2016 21.7045H16.3359V17.3217C16.4672 17.2279 16.5984 17.1248 16.725 17.0263C16.8141 16.956 16.9125 16.8717 17.0203 16.7779C17.4516 16.4029 17.8453 15.9904 18.1969 15.5498V21.7045H18.2016Z" fill="white"/>
</svg>
