<?xml version="1.0" encoding="utf-8"?>
<!-- Generator: Adobe Illustrator 26.1.0, SVG Export Plug-In . SVG Version: 6.00 Build 0)  -->
<svg version="1.1" id="svg8" xmlns:svg="http://www.w3.org/2000/svg"
	 xmlns="http://www.w3.org/2000/svg" xmlns:xlink="http://www.w3.org/1999/xlink" x="0px" y="0px" viewBox="0 0 512 512"
	 style="enable-background:new 0 0 512 512;" xml:space="preserve">
<style type="text/css">
	.st0{fill:#FFFFFF;}
</style>
<g id="g4558" transform="translate(0 -.006)">
	<path id="path4533" vector-effect="none" class="st0" d="M128,175.8c-5.9,0-10.7,4.8-10.7,10.7v23.2c0,5.9,4.8,10.7,10.7,10.7
		c5.9,0,10.7-4.8,10.7-10.7v-23.2C138.7,180.5,133.9,175.8,128,175.8z"/>
	<path id="path4543" vector-effect="none" class="st0" d="M128,233.7c-5.9,0-10.7,4.8-10.7,10.7v23.2c0,5.9,4.8,10.7,10.7,10.7
		c5.9,0,10.7-4.8,10.7-10.7v-23.2C138.7,238.5,133.9,233.7,128,233.7z"/>
	<path id="path4545" vector-effect="none" class="st0" d="M128,291.6c-5.9,0-10.7,4.8-10.7,10.7v23.2c0,5.9,4.8,10.7,10.7,10.7
		c5.9,0,10.7-4.8,10.7-10.7v-23.2C138.7,296.4,133.9,291.6,128,291.6z"/>
	<path id="path4501" vector-effect="none" class="st0" d="M94.6,53.4c-12.4,1-23.7,9.3-27.9,21.8l-14.2,42.9
		c-17.3,1.4-31.2,16-31.2,33.7v42.4c0,4.6,3,8.7,7.4,10.1c13.3,4.3,24.6,21,24.6,41.5c0,20.5-11.3,37.2-24.6,41.5
		c-4.4,1.4-7.4,5.5-7.4,10.1v63.8c0,18.6,15.3,33.9,33.9,33.9h168.4L404.8,457c16.7,5.7,35-3.6,40.5-20.3l13.8-41.8
		c17.5-1.3,31.5-15.9,31.5-33.7v-63.8c0-4.6-3-8.7-7.4-10.1c-13.3-4.3-24.6-21-24.6-41.5c0-20.5,11.3-37.2,24.6-41.5
		c4.4-1.4,7.4-5.5,7.4-10.1v-42.4c0-18.6-15.3-33.9-33.9-33.9H288.4L107.3,54.9C103.1,53.4,98.5,53.6,94.6,53.4L94.6,53.4z
		 M96.1,74.5c1.4-0.1,2.8,0.1,4.3,0.6c41,14.2,81.9,28.5,122.9,42.7H75.1L87,81.9C88.4,77.5,92,74.8,96.1,74.5z M55.3,139.1h62.1
		v10.1c0,5.9,4.8,10.7,10.7,10.7c5.9,0,10.7-4.8,10.7-10.7v-10.1h318.1c7.2,0,12.6,5.4,12.6,12.6V188c-19.7,10.4-32,32.7-32,57.8
		c0,25,12.3,47.4,32,57.7v57.7c0,7.2-5.4,12.6-12.6,12.6H138.6c0.1-3.7,0-7.5,0-11.2c0-5.9-4.8-10.7-10.7-10.7
		c-5.9,0-10.7,4.8-10.7,10.7c0,3.7,0,7.5,0,11.2H55.3c-7.2,0-12.6-5.4-12.6-12.6v-57.6c19.7-10.4,32-32.7,32-57.8
		c0-25-12.3-47.4-32-57.7v-36.3C42.7,144.6,48.1,139.1,55.3,139.1z M289.7,395.1h146.9L425,430c-1.9,5.8-7.7,8.7-13.4,6.8
		L289.7,395.1z"/>
	<path id="circle4507" vector-effect="none" class="st0" d="M349.5,272.6c19,0,34.6,15.6,34.6,34.6s-15.6,34.6-34.6,34.6
		c-19,0-34.6-15.6-34.6-34.6S330.5,272.6,349.5,272.6z M349.5,294c-7.5,0-13.3,5.8-13.3,13.3c0,7.5,5.8,13.3,13.3,13.3
		c7.5,0,13.3-5.8,13.3-13.3C362.7,299.8,356.9,294,349.5,294z"/>
	<path id="circle4509" vector-effect="none" class="st0" d="M247.9,171.1c19,0,34.6,15.6,34.6,34.6s-15.6,34.6-34.6,34.6
		s-34.6-15.6-34.6-34.6S228.9,171.1,247.9,171.1z M247.9,192.4c-7.5,0-13.3,5.8-13.3,13.3c0,7.5,5.8,13.3,13.3,13.3
		c7.5,0,13.3-5.8,13.3-13.3C261.2,198.2,255.3,192.4,247.9,192.4z"/>
	<path id="path1852" vector-effect="none" class="st0" d="M341.9,198.1L240.3,299.7c-4.2,4.2-4.2,10.9,0,15.1
		c4.2,4.2,10.9,4.2,15.1,0L357,213.2c4.2-4.2,4.2-10.9,0-15.1C352.6,194.3,346,193.8,341.9,198.1z"/>
</g>
</svg>
