<svg width="24" height="24" viewBox="0 0 24 24" fill="none" xmlns="http://www.w3.org/2000/svg">
<g clip-path="url(#clip0_2859_5)">
<path d="M21.2192 0H2.78079C1.24745 0 0 1.24745 0 2.78079V21.2192C0 22.7526 1.24745 24 2.78079 24H21.2192C22.7526 24 24 22.7526 24 21.2192V2.78079C24 1.24745 22.7526 0 21.2192 0ZM23.2484 21.2192C23.2484 22.3381 22.3381 23.2484 21.2192 23.2484H2.78079C1.66186 23.2484 0.751566 22.3381 0.751566 21.2192V2.78079C0.751566 1.66186 1.66186 0.751566 2.78079 0.751566H21.2192C22.3381 0.751566 23.2484 1.66186 23.2484 2.78079V21.2192Z" fill="white"/>
<path d="M6.78892 11.1745C9.20636 11.1745 11.1731 9.20782 11.1731 6.79038C11.1731 4.37295 9.20636 2.40625 6.78892 2.40625C4.37148 2.40625 2.40479 4.37295 2.40479 6.79038C2.40479 9.20782 4.37148 11.1745 6.78892 11.1745ZM6.78892 3.15782C8.79194 3.15782 10.4215 4.78736 10.4215 6.79038C10.4215 8.79341 8.79194 10.423 6.78892 10.423C4.7859 10.423 3.15635 8.79341 3.15635 6.79038C3.15635 4.78736 4.7859 3.15782 6.78892 3.15782Z" fill="white"/>
<path d="M20.8668 4.85567L18.769 4.55083L17.8308 2.64987C17.6829 2.3502 17.3834 2.16406 17.0492 2.16406C16.7151 2.16406 16.4156 2.3502 16.2678 2.64987L15.3296 4.55083L13.2317 4.85567C12.901 4.90372 12.6314 5.13099 12.5282 5.44876C12.4249 5.76657 12.5094 6.10888 12.7487 6.34217L14.2667 7.82185L13.9083 9.91125C13.8519 10.2406 13.9847 10.5672 14.255 10.7636C14.4078 10.8746 14.5865 10.931 14.7665 10.931C14.905 10.931 15.0442 10.8976 15.1729 10.83L17.0492 9.84351L18.9256 10.83C19.2214 10.9855 19.5731 10.9601 19.8434 10.7637C20.1137 10.5673 20.2466 10.2406 20.1901 9.91125L19.8317 7.8219L21.3498 6.34222C21.589 6.10898 21.6735 5.76662 21.5703 5.44881C21.4671 5.13099 21.1975 4.90372 20.8668 4.85567ZM20.8252 5.804L19.1658 7.42161C19.0772 7.50794 19.0367 7.63235 19.0577 7.75426L19.4494 10.0383C19.4604 10.1022 19.4243 10.1392 19.4017 10.1556C19.3792 10.172 19.3328 10.1949 19.2754 10.1647L17.2242 9.08633C17.1147 9.02881 16.984 9.02881 16.8745 9.08633L14.8233 10.1647C14.7658 10.1949 14.7195 10.172 14.6969 10.1556C14.6744 10.1392 14.6383 10.1022 14.6492 10.0383L15.041 7.75426C15.0619 7.63235 15.0215 7.50794 14.9329 7.42161L13.2735 5.804C13.227 5.7587 13.2345 5.70754 13.2431 5.68104C13.2517 5.65458 13.2757 5.60879 13.3399 5.59942L15.6333 5.26617C15.7557 5.24839 15.8615 5.17153 15.9162 5.0606L16.9419 2.98242C16.9706 2.92425 17.0216 2.91558 17.0494 2.91558C17.0773 2.91558 17.1283 2.92425 17.1569 2.98242L18.1826 5.06055C18.2373 5.17143 18.3431 5.24834 18.4655 5.26612L20.7589 5.59937C20.8231 5.60874 20.8471 5.65453 20.8557 5.68099C20.8642 5.70754 20.8717 5.7587 20.8252 5.804Z" fill="white"/>
<path d="M17.0756 12.1335C16.9288 11.9867 16.6909 11.9867 16.5442 12.1335L12.135 16.5427C11.9882 16.6894 11.9882 16.9274 12.135 17.0741L16.5442 21.4833C16.6175 21.5566 16.7137 21.5934 16.8099 21.5934C16.906 21.5934 17.0022 21.5567 17.0756 21.4833L21.4847 17.0741C21.6315 16.9273 21.6315 16.6894 21.4847 16.5427L17.0756 12.1335ZM16.8099 20.6862L12.9321 16.8084L16.8099 12.9306L20.6876 16.8084L16.8099 20.6862Z" fill="white"/>
<path d="M7.2408 13.016C7.17366 12.8998 7.04965 12.8281 6.91537 12.8281C6.78109 12.8281 6.65708 12.8998 6.58994 13.016L2.19293 20.6319C2.12579 20.7481 2.12579 20.8914 2.19293 21.0077C2.26007 21.1239 2.38408 21.1956 2.51836 21.1956H11.3124C11.4467 21.1956 11.5707 21.1239 11.6379 21.0077C11.705 20.8914 11.705 20.7481 11.6379 20.6319L7.2408 13.016ZM3.16917 20.444L6.91532 13.9555L10.6615 20.444H3.16917Z" fill="white"/>
<path d="M18.7207 5.98347L17.7989 5.84954L17.3867 5.01425C17.2948 4.82816 17.0696 4.7517 16.8834 4.84359C16.6973 4.93543 16.6209 5.1608 16.7127 5.34689L17.2124 6.35935C17.2672 6.47023 17.3729 6.54714 17.4953 6.56493L18.6126 6.72727C18.631 6.72992 18.6491 6.73123 18.6671 6.73123C18.8508 6.73123 19.0114 6.5965 19.0386 6.40946C19.0684 6.20398 18.9261 6.01328 18.7207 5.98347Z" fill="white"/>
<path d="M6.78936 4.75938C7.90829 4.75938 8.81858 5.66967 8.81858 6.78861C8.81858 6.99614 8.98684 7.16439 9.19437 7.16439C9.4019 7.16439 9.57015 6.99614 9.57015 6.78861C9.57015 5.25526 8.3227 4.00781 6.78936 4.00781C6.58182 4.00781 6.41357 4.17606 6.41357 4.3836C6.41357 4.59113 6.58182 4.75938 6.78936 4.75938Z" fill="white"/>
<path d="M16.5441 14.5398C16.3974 14.6865 16.3974 14.9245 16.5441 15.0712L18.5483 17.0753C18.6217 17.1487 18.7179 17.1854 18.814 17.1854C18.9102 17.1854 19.0064 17.1487 19.0797 17.0753C19.2265 16.9286 19.2265 16.6906 19.0797 16.5439L17.0756 14.5398C16.9289 14.393 16.6909 14.393 16.5441 14.5398Z" fill="white"/>
<path d="M6.72749 16.0817C6.54777 16.1854 6.48619 16.4153 6.58996 16.595L8.18112 19.351C8.25072 19.4715 8.37703 19.5389 8.5069 19.5389C8.57063 19.5389 8.63527 19.5227 8.69444 19.4885C8.87417 19.3848 8.93574 19.1549 8.83198 18.9752L7.24081 16.2192C7.137 16.0395 6.90722 15.9779 6.72749 16.0817Z" fill="white"/>
</g>
<defs>
<clipPath id="clip0_2859_5">
<rect width="24" height="24" fill="white"/>
</clipPath>
</defs>
</svg>
