<?xml version="1.0" encoding="utf-8"?>
<!-- Generator: Adobe Illustrator 26.1.0, SVG Export Plug-In . SVG Version: 6.00 Build 0)  -->
<svg version="1.1" id="Layer_1" xmlns="http://www.w3.org/2000/svg" xmlns:xlink="http://www.w3.org/1999/xlink" x="0px" y="0px"
	 viewBox="0 0 512 512" style="enable-background:new 0 0 512 512;" xml:space="preserve">
<style type="text/css">
	.st0{fill:#FFFFFF;}
</style>
<g>
	<path class="st0" d="M121.5,138.6h147.2c9.7,0,9.7-15,0-15H121.5C111.8,123.6,111.8,138.6,121.5,138.6z"/>
	<path class="st0" d="M121.5,193.6h113.2c9.7,0,9.7-15,0-15H121.5C111.8,178.6,111.8,193.6,121.5,193.6z"/>
	<path class="st0" d="M121.5,248.6h97.2c9.7,0,9.7-15,0-15h-97.2C111.8,233.6,111.8,248.6,121.5,248.6z"/>
	<path class="st0" d="M259.7,432.4h-5v-73.3c0-4.1-3.4-7.5-7.5-7.5h-30.1v-26.4c0-4.1-3.4-7.5-7.5-7.5h-37.5c-4.1,0-7.5,3.4-7.5,7.5
		v45.6h-30c-4.1,0-7.5,3.4-7.5,7.5v54.1h-5c-4.1,0-7.5,3.4-7.5,7.5s3.4,7.5,7.5,7.5h137.6c4.1,0,7.5-3.4,7.5-7.5
		S263.9,432.4,259.7,432.4z M142.1,432.4v-46.6h22.5v46.6H142.1z M179.6,432.4v-99.7h22.5v99.7H179.6z M217.2,432.4v-65.8h22.5v65.8
		H217.2z"/>
	<path class="st0" d="M511.9,233.6c-1-31.6-13.8-61.3-36.2-83.7c-10.7-10.7-23-19.1-36-25c-0.2-0.1-0.4-0.2-0.7-0.3
		c-0.2-0.1-0.5-0.2-0.7-0.3c-16.9-7.5-35.1-10.9-53.3-10.5V72.5c0-9.6-7.8-17.4-17.4-17.4h-10.8v-9.4c0-9.6-7.8-17.4-17.4-17.4
		h-10.8V17.4c0-9.6-7.8-17.4-17.4-17.4H17.4C7.8,0,0,7.8,0,17.4v422.1c0,9.6,7.8,17.4,17.4,17.4h10.8v10.9c0,9.6,7.8,17.4,17.4,17.4
		l10.8,0v9.3c0,9.6,7.8,17.4,17.4,17.4h234.3c2,0,3.9-0.8,5.3-2.2l69.3-69c1.4-1.4,2.2-3.3,2.2-5.3v-74.4c1,0,2,0,3,0
		c21.1,0,42.2-5.4,60.6-15.7c8.5-4.7,1.1-17.8-7.3-13.1c-40,22.4-90.2,16.9-124.5-13l73.7-73.7l100.7,26.7
		c-4.4,13.1-11.5,25.6-21.1,36.6c-6.4,7.3,4.9,17.2,11.3,9.9C502.1,295.3,512.9,265,511.9,233.6L511.9,233.6z M425.9,135.4
		l-43.9,97.7l-75.7,75.7c-37.2-42.7-35.5-107.7,5.1-148.3C342.2,129.6,387.3,121.3,425.9,135.4L425.9,135.4z M45.7,470.2
		c-1.3,0-2.4-1.1-2.4-2.4V45.7c0-1.3,1.1-2.4,2.4-2.4H98c9.7,0,9.7-15,0-15H45.7c-9.6,0-17.4,7.8-17.4,17.4v396.2H17.4
		c-1.3,0-2.4-1.1-2.4-2.4V17.4c0-1.3,1.1-2.4,2.4-2.4h293.7c1.3,0,2.4,1.1,2.4,2.4v10.9H140c-9.7,0-9.7,15,0,15h199.3
		c1.3,0,2.4,1.1,2.4,2.4v9.4H73.9c-9.6,0-17.4,7.8-17.4,17.4v397.8L45.7,470.2z M71.5,494.6V72.5c0-1.3,1.1-2.4,2.4-2.4h293.7
		c1.3,0,2.4,1.1,2.4,2.4v42.6c-25.4,3.7-49.8,15.4-69.3,34.8c-48.3,48.3-48.3,126.8,0,175c19,19,42.9,31,69.3,34.9v67.5h-51.9
		c-9.6,0-17.4,7.8-17.4,17.4V497H73.9C72.6,497,71.5,495.9,71.5,494.6L71.5,494.6z M315.7,486.3v-41.5c0-1.3,1.1-2.4,2.4-2.4h41.3
		L315.7,486.3z M398.7,232.5l40.9-90.9c9.2,4.9,17.8,11.2,25.5,19c26.3,26.3,36.4,63.1,29.9,97.4L398.7,232.5z"/>
</g>
</svg>
