<?xml version="1.0" encoding="utf-8"?>
<!-- Generator: Adobe Illustrator 26.1.0, SVG Export Plug-In . SVG Version: 6.00 Build 0)  -->
<svg version="1.1" id="Layer_1" xmlns="http://www.w3.org/2000/svg" xmlns:xlink="http://www.w3.org/1999/xlink" x="0px" y="0px"
	 viewBox="0 0 512 512" style="enable-background:new 0 0 512 512;" xml:space="preserve">
<style type="text/css">
	.st0{fill:#FFFFFF;}
</style>
<path class="st0" d="M472,312H304c-4.4,0-8,3.6-8,8s3.6,8,8,8h168v24H323.7c-4.4,0-8,3.6-8,8s3.6,8,8,8H440v24H328c-4.4,0-8,3.6-8,8
	s3.6,8,8,8h144v24H317.9c-4.4,0-8,3.6-8,8s3.6,8,8,8H472v24H289.4c-4.4,0-8,3.6-8,8s3.6,8,8,8H472c8.8,0,16-7.2,16-16v-24
	c0-2.8-0.8-5.6-2.2-8c1.4-2.4,2.2-5.2,2.2-8v-24c0-8.8-7.2-16-16-16h-16v-24h16c8.8,0,16-7.2,16-16v-24C488,319.2,480.8,312,472,312
	z"/>
<path class="st0" d="M136,240c22.1-0.1,39.9-18.1,39.8-40.2c0-6.1-1.5-12.2-4.2-17.6l50.7-40c14.7,12.8,36.6,12.8,51.4,0l50.7,40
	c-9.8,19.8-1.7,43.8,18.2,53.6c19.8,9.8,43.8,1.7,53.6-18.2c7.6-15.4,4.5-34-7.7-46.1l45.5-70.2c4.5,1.8,9.3,2.7,14.1,2.8
	c22.1,0,40-17.8,40.1-39.9S470.3,24,448.2,24s-40,17.8-40.1,39.9c0,10.8,4.3,21.1,12,28.6l-45.6,70.2c-13.6-5.4-29-2.8-40,6.8
	l-50.7-40c10.1-19.7,2.3-43.8-17.4-53.8s-43.8-2.3-53.8,17.4c-5.9,11.5-5.9,25,0,36.5l-50.7,40c-7.2-6.2-16.4-9.6-25.8-9.6
	c-22.1,0-40,17.9-40,40S113.9,240,136,240z M448,40c13.3,0,24,10.7,24,24s-10.7,24-24,24s-24-10.7-24-24S434.7,40,448,40z M360,176
	c13.3,0,24,10.7,24,24s-10.7,24-24,24s-24-10.7-24-24S346.7,176,360,176z M248,88c13.3,0,24,10.7,24,24s-10.7,24-24,24
	c-13.3,0-24-10.7-24-24S234.7,88,248,88z M136,176c13.3,0,24,10.7,24,24s-10.7,24-24,24s-24-10.7-24-24S122.7,176,136,176z"/>
<path class="st0" d="M208,328c-35.3,0-64,28.7-64,64s28.7,64,64,64s64-28.7,64-64S243.3,328,208,328z M208,440
	c-26.5,0-48-21.5-48-48s21.5-48,48-48s48,21.5,48,48S234.5,440,208,440z"/>
<path class="st0" d="M208,296c-53,0-96,43-96,96s43,96,96,96s96-43,96-96S261,296,208,296z M208,472c-44.2,0-80-35.8-80-80
	s35.8-80,80-80s80,35.8,80,80S252.2,472,208,472z"/>
<path class="st0" d="M204,376h20c4.4,0,8-3.6,8-8s-3.6-8-8-8h-8c0-4.4-3.6-8-8-8s-8,3.6-8,8l0,0c-11,1.1-19.1,11-18,22
	s11,19.1,22,18h8c2.2,0,4,1.8,4,4s-1.8,4-4,4h-20c-4.4,0-8,3.6-8,8s3.6,8,8,8h8c0,4.4,3.6,8,8,8s8-3.6,8-8l0,0c11-1.1,19.1-11,18-22
	s-11-19.1-22-18h-8c-2.2,0-4-1.8-4-4S201.8,376,204,376z"/>
<path class="st0" d="M120,296c6.3,0,12.5,1.2,18.3,3.6c4.1,1.7,8.7-0.3,10.4-4.3c1.7-4.1-0.3-8.7-4.3-10.4c-7.7-3.3-16-4.9-24.4-4.9
	c-35.3,0-64,28.7-64,64c0,21,10.3,40.6,27.5,52.5c3.6,2.5,8.6,1.6,11.1-2c2.5-3.6,1.6-8.6-2-11.1c-21.8-15.1-27.2-45-12.1-66.8
	C89.5,303.7,104.3,296,120,296z"/>
<path class="st0" d="M96,420.4C53.9,407,30.6,362,44,319.9s58.4-65.4,100.5-52c9.7,3.1,18.8,8,26.7,14.5c3.4,2.8,8.5,2.4,11.3-1
	c2.8-3.4,2.4-8.5-1-11.3l0,0c-40.6-34.1-101.1-28.9-135.3,11.7S17.3,383,57.9,417.2c10.4,8.7,22.5,15.1,35.5,18.8
	c4.4,0.7,8.5-2.4,9.2-6.8c0.7-4.4-2.4-8.5-6.8-9.2L96,420.4z"/>
</svg>
