<?xml version="1.0" encoding="utf-8"?>
<!-- Generator: Adobe Illustrator 26.1.0, SVG Export Plug-In . SVG Version: 6.00 Build 0)  -->
<svg version="1.1" id="Layer_1" xmlns="http://www.w3.org/2000/svg" xmlns:xlink="http://www.w3.org/1999/xlink" x="0px" y="0px"
	 viewBox="0 0 512 512" style="enable-background:new 0 0 512 512;" xml:space="preserve">
<style type="text/css">
	.st0{fill:#FFFFFF;}
</style>
<g>
	<g>
		<path class="st0" d="M511.9,495.3l-104.2,0.5c-8.9,0-16.1-7.1-16.1-16c-0.1-17.7-14.5-32-32.2-31.9l-136.3,0.6
			c-8.9,0-16.1-7.1-16.1-16s7.1-16.1,16-16.1l40.1-0.2c17.7-0.1,32-14.5,31.9-32.2c-0.1-17.7-14.5-32-32.2-31.9l-144.3,0.7
			c-8.9,0-16.1-7.1-16.1-16s7.1-16.1,16-16.1l56.1-0.3l-0.1-16l-56.1,0.3c-17.7,0.1-32,14.5-31.9,32.2c0.1,17.7,14.5,32,32.2,31.9
			l144.3-0.7c8.9,0,16.1,7.1,16.1,16c0,8.9-7.1,16.1-16,16.1l-40.1,0.2c-17.7,0.1-32,14.5-31.9,32.2c0.1,17.7,14.5,32,32.2,31.9
			l136.3-0.6c8.9,0,16.1,7.1,16.1,16c0.1,17.7,14.5,32,32.2,31.9l104.2-0.5L511.9,495.3z"/>
	</g>
</g>
<g>
	<g>
		
			<rect x="276.3" y="473.4" transform="matrix(1 -4.699948e-03 4.699948e-03 1 -2.2582 1.4385)" class="st0" width="57.3" height="15.6"/>
	</g>
</g>
<g>
	<g>
		<path class="st0" d="M238.3,256.3l0.1,15.6c8.9,0,16.3,7.2,16.3,16.2c0,8.9-7.2,16.3-16.2,16.3l-48.1,0.2l0.1,15.6l48.1-0.2
			c17.6-0.1,31.8-14.4,31.7-32C270.2,270.5,255.8,256.2,238.3,256.3z"/>
	</g>
</g>
<g>
	<g>
		<path class="st0" d="M118.4,377.1c-21.9,0.1-40.2-18.3-40.3-40.2L62.5,337c0.1,31.3,25.8,55.9,56,55.8L118.4,377.1z"/>
	</g>
</g>
<g>
	<g>
		<path class="st0" d="M263,328.3l0.1,15.6c21.9-0.1,40,17.9,40.1,39.8l15.6-0.1C318.7,353.5,293.3,328.2,263,328.3z"/>
	</g>
</g>
<g>
	<g>
		
			<rect x="132" y="377.2" transform="matrix(1 -4.699948e-03 4.699948e-03 1 -1.8081 0.6786)" class="st0" width="22.9" height="15.6"/>
	</g>
</g>
<g>
	<g>
		
			<rect x="245" y="473.6" transform="matrix(1 -4.699948e-03 4.699948e-03 1 -2.2599 1.1936)" class="st0" width="15.6" height="15.6"/>
	</g>
</g>
<g>
	<g>
		
			<rect x="412.8" y="472.8" transform="matrix(1 -4.699948e-03 4.699948e-03 1 -2.2542 2.0212)" class="st0" width="32.3" height="15.6"/>
	</g>
</g>
<g>
	<g>
		
			<rect x="461.7" y="472.6" transform="matrix(1 -4.699948e-03 4.699948e-03 1 -2.2528 2.2146)" class="st0" width="16.7" height="15.6"/>
	</g>
</g>
<g>
	<g>
		<path class="st0" d="M133.5,0.2L73,181.6c-4.9-7.1-11.9-12.4-20.3-15.2c-10.2-3.4-21-2.6-30.6,2.2c-9.6,4.8-16.7,13-20.1,23.2
			c-3.4,10.2-2.6,21,2.2,30.6c4.8,9.6,13,16.7,23.2,20.1c4.2,1.4,8.6,2.1,12.9,2.1c6.1,0,12.1-1.5,17.7-4.2
			c9.6-4.8,16.7-13,20.1-23.2l48.5-145.6l128.4,20.3l-37.6,112.7c-4.9-7.1-11.9-12.4-20.3-15.2c-10.2-3.4-21-2.6-30.6,2.2
			c-9.6,4.8-16.7,13-20.1,23.2c-3.4,10.2-2.6,21,2.2,30.6s13,16.7,23.2,20.1c4.2,1.4,8.6,2.1,12.9,2.1c6.1,0,12.1-1.5,17.7-4.2
			c9.6-4.8,16.7-13,20.1-23.2L294,25.6L133.5,0.2z M62.9,212c-2,6.1-6.3,11-12.1,13.9c-5.7,2.9-12.3,3.3-18.4,1.3s-11-6.3-13.9-12.1
			c-2.9-5.7-3.3-12.3-1.3-18.4c2-6.1,6.3-11,12.1-13.9c3.4-1.7,7-2.5,10.6-2.6c2.6,0,5.2,0.4,7.7,1.2c6.1,2,11,6.3,13.9,12.1
			C64.5,199.4,64.9,205.9,62.9,212z M207.4,234.8c-2,6.1-6.3,11-12.1,13.9S183.1,252,177,250c-6.1-2-11-6.3-13.9-12.1
			c-2.9-5.7-3.3-12.3-1.3-18.4c2-6.1,6.3-11,12.1-13.9c3.4-1.7,7-2.5,10.6-2.6c2.6,0,5.2,0.4,7.7,1.2c6.1,2,11,6.3,13.9,12.1
			C209,222.2,209.4,228.7,207.4,234.8z M260.2,76.3L131.8,56l2.5-7.4l128.4,20.3L260.2,76.3z M139.4,33.2l5-15l128.4,20.3l-5,15
			L139.4,33.2z"/>
	</g>
</g>
</svg>
