<?xml version="1.0" encoding="utf-8"?>
<!-- Generator: Adobe Illustrator 26.1.0, SVG Export Plug-In . SVG Version: 6.00 Build 0)  -->
<svg version="1.1" id="svg3330" xmlns:svg="http://www.w3.org/2000/svg"
	 xmlns="http://www.w3.org/2000/svg" xmlns:xlink="http://www.w3.org/1999/xlink" x="0px" y="0px" viewBox="0 0 682.7 682.7"
	 style="enable-background:new 0 0 682.7 682.7;" xml:space="preserve">
<style type="text/css">
	.st0{fill:none;stroke:#FFFFFF;stroke-width:26.6667;stroke-linecap:round;stroke-linejoin:round;stroke-miterlimit:13.3333;}
</style>
<g id="g3336" transform="matrix(1.3333333,0,0,-1.3333333,0,682.66667)">
	<g id="g3338">
		<g>
			<g id="g3340">
				<g id="g3346" transform="translate(292,256)">
					<path id="path3348" class="st0" d="M0,0c0,19.9-16.1,36-36,36S-72,19.9-72,0s16.1-36,36-36S0-19.9,0,0z"/>
				</g>
				<g id="g3350" transform="translate(340,256)">
					<path id="path3352" class="st0" d="M0,0c0,46.4-37.6,84-84,84s-84-37.6-84-84s37.6-84,84-84S0-46.4,0,0z"/>
				</g>
				<g id="g3354" transform="translate(93.5273,10)">
					<path id="path3356" class="st0" d="M0,0l-69.2,69.2c-19.1,19.1-19.1,50.1,0,69.2l0,0c19.1,19.1,50.1,19.1,69.2,0
						c19.1,19.1,50.1,19.1,69.2,0l0,0c19.1-19.1,19.1-50.1,0-69.2L0,0z"/>
				</g>
				<g id="g3358" transform="translate(449.7961,380.1496)">
					<path id="path3360" class="st0" d="M0,0c0,17.7-14.3,32-32,32S-64,17.7-64,0s14.3-32,32-32S0-17.7,0,0z"/>
				</g>
				<g id="g3362" transform="translate(502,502)">
					<path id="path3364" class="st0" d="M0,0l-52.2-15v0.1v-106.9"/>
				</g>
				<g id="g3366" transform="translate(256,77.3333)">
					<path id="path3368" class="st0" d="M0,0c98.7,0,178.7,80,178.7,178.7"/>
				</g>
				<g id="g3370" transform="translate(256,124.6667)">
					<path id="path3372" class="st0" d="M0,0c72.5,0,131.3,58.8,131.3,131.3"/>
				</g>
				<g id="g3374" transform="translate(419.4206,412.1085)">
					<path id="path3376" class="st0" d="M0,0c-41.2,43.1-99.2,69.9-163.4,69.9c-124.8,0-226-101.2-226-226c0-33.6,7.3-65.4,20.4-94"
						/>
				</g>
				<g id="g3378" transform="translate(444.3178,131.0064)">
					<path id="path3380" class="st0" d="M0,0c23.8,35.8,37.7,78.8,37.7,125c0,43-12,83.3-32.9,117.5"/>
				</g>
				<g id="g3382" transform="translate(143.542,59.9223)">
					<path id="path3384" class="st0" d="M0,0c33.1-19,71.5-29.9,112.5-29.9c46.2,0,89.2,13.9,125,37.7"/>
				</g>
				<g id="g3386" transform="translate(415.8061,96.1939)">
					<path id="path3388" class="st0" d="M0,0L0,0"/>
				</g>
			</g>
		</g>
	</g>
</g>
</svg>
