<?xml version="1.0" encoding="utf-8"?>
<!-- Generator: Adobe Illustrator 26.1.0, SVG Export Plug-In . SVG Version: 6.00 Build 0)  -->
<svg version="1.1" id="Layer_1" xmlns="http://www.w3.org/2000/svg" xmlns:xlink="http://www.w3.org/1999/xlink" x="0px" y="0px"
	 viewBox="0 0 512 512" style="enable-background:new 0 0 512 512;" xml:space="preserve">
<style type="text/css">
	.st0{fill:#FFFFFF;}
</style>
<path class="st0" d="M437,75C388.7,26.6,324.4,0,256,0S123.3,26.6,75,75S0,187.6,0,256s26.6,132.7,75,181s112.6,75,181,75
	s132.7-26.6,181-75s75-112.6,75-181S485.4,123.3,437,75z M111.1,429.3c8.5-72.7,71-128.9,144.9-128.9c39,0,75.6,15.2,103.2,42.7
	c23.3,23.3,38,53.7,41.7,86.2C361.6,462.2,311.1,482,256,482S150.4,462.2,111.1,429.3z M256,269.5c-42.9,0-77.8-34.9-77.8-77.8
	c0-42.9,34.9-77.8,77.8-77.8s77.8,34.9,77.8,77.8C333.8,234.6,298.9,269.5,256,269.5z M426.7,403.9c-7.6-30.8-23.6-59.2-46.4-82
	c-18.4-18.4-40.2-32.3-64-40.9c28.6-19.4,47.4-52.2,47.4-89.2C363.8,132.3,315.4,84,256,84s-107.8,48.3-107.8,107.8
	c0,37.1,18.8,69.9,47.5,89.3c-21.9,8-42.1,20.3-59.6,36.5c-25.2,23.5-42.8,53.5-50.9,86.3C50.9,364.2,30,312.5,30,256
	C30,131.4,131.4,30,256,30s226,101.4,226,226C482,312.5,461.1,364.3,426.7,403.9z"/>
</svg>
