<svg width="24" height="24" viewBox="0 0 24 24" fill="none" xmlns="http://www.w3.org/2000/svg">
<g clip-path="url(#clip0_2859_3)">
<path d="M11.9998 16.437C8.40202 16.452 5.39527 18.9637 4.62202 22.329L4.61227 22.38C4.60402 22.416 4.59952 22.4572 4.59952 22.5C4.59952 22.8105 4.85152 23.0625 5.16202 23.0625C5.42977 23.0625 5.65402 22.875 5.71027 22.6238L5.71102 22.62C6.36727 19.7062 8.93377 17.562 12.0005 17.562C15.0673 17.562 17.6338 19.7063 18.2818 22.5773L18.29 22.62C18.347 22.875 18.5705 23.0625 18.839 23.0625H18.8398C18.8825 23.0625 18.9238 23.0573 18.9635 23.0483L18.9598 23.049C19.2148 22.992 19.4023 22.7678 19.4023 22.4993C19.4023 22.4565 19.3978 22.4152 19.3888 22.3755L19.3895 22.3793C18.6058 18.9638 15.5983 16.452 12.0028 16.4363H12.0013L11.9998 16.437ZM6.87277 7.9515C8.80927 7.9515 10.3798 6.38175 10.3798 4.4445C10.3798 2.50725 8.81002 0.9375 6.87277 0.9375C4.93627 0.9375 3.36577 2.50725 3.36577 4.4445C3.36802 6.38025 4.93777 7.94925 6.87277 7.9515ZM6.87277 2.0625C8.18827 2.0625 9.25477 3.129 9.25477 4.4445C9.25477 5.76 8.18827 6.8265 6.87277 6.8265C5.55727 6.8265 4.49077 5.76 4.49077 4.4445C4.49227 3.12975 5.55877 2.064 6.87277 2.0625ZM17.1943 7.9515C19.1308 7.9515 20.7013 6.38175 20.7013 4.4445C20.7013 2.50725 19.1315 0.9375 17.1943 0.9375C15.2578 0.9375 13.6873 2.50725 13.6873 4.4445C13.6895 6.38025 15.2585 7.94925 17.1935 7.9515H17.1943ZM17.1943 2.0625C18.5098 2.0625 19.5763 3.129 19.5763 4.4445C19.5763 5.76 18.5098 6.8265 17.1943 6.8265C15.8788 6.8265 14.8123 5.76 14.8123 4.4445C14.8138 3.12975 15.8795 2.064 17.1943 2.0625ZM23.1163 14.88C22.4578 11.9595 19.8853 9.81075 16.8118 9.81075C16.4945 9.81075 16.1825 9.834 15.8773 9.8775L15.9118 9.873C15.875 9.882 15.8428 9.894 15.812 9.90825L15.815 9.90675C15.2518 8.31 13.7563 7.1865 11.9983 7.1865C10.2478 7.1865 8.75752 8.30025 8.19727 9.85725L8.18827 9.88575C8.17552 9.88275 8.16577 9.87525 8.15302 9.873C7.88377 9.83325 7.57327 9.81 7.25677 9.81C7.25527 9.81 7.25302 9.81 7.25152 9.81C4.18252 9.8235 1.61827 11.9655 0.957523 14.8358L0.949273 14.8793C0.941023 14.9153 0.936523 14.9565 0.936523 14.9993C0.936523 15.3098 1.18852 15.5618 1.49902 15.5618C1.76677 15.5618 1.99102 15.3742 2.04727 15.123L2.04802 15.1193C2.60077 12.714 4.71802 10.9455 7.25077 10.935H7.25227C7.50352 10.935 7.75027 10.953 7.99102 10.9875L7.96327 10.9845C7.95727 11.0737 7.93627 11.1585 7.93627 11.25C7.94077 13.4902 9.75802 15.3045 11.999 15.3045C14.24 15.3045 16.0573 13.4902 16.061 11.25V11.2492C16.061 11.1592 16.04 11.0745 16.034 10.9853C16.046 10.9838 16.0573 10.989 16.0693 10.986C16.2898 10.953 16.5448 10.935 16.8043 10.935C16.8073 10.935 16.8095 10.935 16.8125 10.935C19.3468 10.9447 21.464 12.7132 22.0093 15.0833L22.016 15.1193C22.073 15.3743 22.2973 15.561 22.565 15.5618C22.6078 15.5618 22.649 15.5565 22.6888 15.5475L22.685 15.5483C22.94 15.4913 23.1275 15.267 23.1275 14.9985C23.1275 14.9557 23.123 14.9145 23.114 14.8748L23.1148 14.8785L23.1163 14.88ZM11.9998 14.187C11.9998 14.187 11.9998 14.187 11.999 14.187C10.3768 14.187 9.06127 12.8722 9.06127 11.2492C9.06127 9.62625 10.3768 8.3115 11.999 8.3115C13.6213 8.3115 14.9368 9.627 14.9368 11.2492C14.9368 11.2492 14.9368 11.2492 14.9368 11.25C14.9345 12.8715 13.6213 14.1848 11.9998 14.187Z" fill="white"/>
</g>
<defs>
<clipPath id="clip0_2859_3">
<rect width="24" height="24" fill="white"/>
</clipPath>
</defs>
</svg>
