<?xml version="1.0" encoding="utf-8"?>
<!-- Generator: Adobe Illustrator 26.1.0, SVG Export Plug-In . SVG Version: 6.00 Build 0)  -->
<svg version="1.1" id="Layer_1_1_" xmlns="http://www.w3.org/2000/svg" xmlns:xlink="http://www.w3.org/1999/xlink" x="0px" y="0px"
	 viewBox="0 0 512 512" style="enable-background:new 0 0 512 512;" xml:space="preserve">
<style type="text/css">
	.st0{fill:#FFFFFF;}
</style>
<path class="st0" d="M24,304h24.6c-0.4,2.6-0.6,5.3-0.6,8c0,16,6.8,30.4,17.5,40.6c-8.2,1.3-15.7,5-21.7,11
	c-7.6,7.6-11.8,17.6-11.8,28.3V488c0,4.4,3.6,8,8,8h128c4.4,0,8-3.6,8-8v-91c-0.6-23.3-14.7-40.7-34.2-43.8
	C153,342.9,160,328.3,160,312c0-2.7-0.3-5.4-0.6-8H184c4.4,0,8-3.6,8-8V168c0-2.9-1.6-5.6-4.1-7c-2.6-1.4-5.7-1.3-8.1,0.2L128,193.6
	V168c0-2.9-1.6-5.6-4.1-7c-2.6-1.4-5.7-1.3-8.1,0.2L64,193.6V104c0-4.4-3.6-8-8-8H24c-4.4,0-8,3.6-8,8v192C16,300.4,19.6,304,24,304
	L24,304z M160,397.2V480H48v-88.1c0-6.4,2.5-12.5,7.1-17c4.6-4.5,10.7-6.8,17-6.9l14.7,0.1l-6.7,46.7c-0.2,1.4,0,2.8,0.5,4.1l16,40
	c1.2,3,4.2,5,7.4,5s6.2-2,7.4-5l16-40c0.5-1.3,0.7-2.7,0.5-4.1l-6.6-46.5l14.5,0.1C149.6,368.6,159.6,380.5,160,397.2L160,397.2z
	 M96.2,415l6.7-46.8l2.2,0l6.7,46.7l-7.8,19.4L96.2,415z M104,352c-19.4,0-35.6-13.9-39.2-32.2c1.2,0.1,2.3,0.2,3.5,0.2
	c13,0,25.6-4.7,35.7-13c10.1,8.3,22.7,13,35.7,13c1.2,0,2.4-0.2,3.5-0.2C139.6,338.1,123.4,352,104,352L104,352z M64.9,303.8
	C68.7,285.7,84.8,272,104,272s35.3,13.7,39.1,31.8c-1.1,0.1-2.3,0.2-3.4,0.2c-11.2,0-22-4.9-29.8-13.4c-3-3.3-8.8-3.3-11.8,0
	c-7.7,8.5-18.6,13.4-29.8,13.4C67.2,304,66,303.9,64.9,303.8z M32,112h16v96c0,2.9,1.6,5.6,4.1,7c2.5,1.4,5.6,1.3,8.1-0.2l51.8-32.4
	V208c0,2.9,1.6,5.6,4.1,7c2.5,1.4,5.6,1.3,8.1-0.2l51.8-32.4V288h-21.5c-9-18.9-28.2-32-50.5-32s-41.5,13.1-50.5,32H32V112z"/>
<path class="st0" d="M32,80h16c0-13.2,10.8-24,24-24h56V40H72C49.9,40,32,57.9,32,80z"/>
<path class="st0" d="M144,40h32v16h-32V40z"/>
<path class="st0" d="M424,176c-39.7,0-72,32.3-72,72s32.3,72,72,72s72-32.3,72-72S463.7,176,424,176z M448,298.5
	c-7.3,3.5-15.4,5.5-24,5.5s-16.7-2-24-5.5V280c0-4.4,3.6-8,8-8h32c4.4,0,8,3.6,8,8V298.5z M408,240c0-8.8,7.2-16,16-16s16,7.2,16,16
	s-7.2,16-16,16S408,248.8,408,240z M464,287.1V280c0-9.6-5.7-17.8-13.8-21.7c3.7-5.2,5.8-11.5,5.8-18.3c0-17.6-14.4-32-32-32
	s-32,14.4-32,32c0,6.8,2.2,13.1,5.8,18.3c-8.2,3.8-13.8,12.1-13.8,21.7v7.1c-9.9-10.1-16-23.9-16-39.1c0-30.9,25.1-56,56-56
	s56,25.1,56,56C480,263.2,473.9,277,464,287.1z"/>
<path class="st0" d="M496,408c0-39.7-32.3-72-72-72s-72,32.3-72,72s32.3,72,72,72S496,447.7,496,408z M448,458.5
	c-7.3,3.5-15.4,5.5-24,5.5s-16.7-2-24-5.5V440c0-4.4,3.6-8,8-8h32c4.4,0,8,3.6,8,8V458.5z M408,400c0-8.8,7.2-16,16-16s16,7.2,16,16
	s-7.2,16-16,16S408,408.8,408,400z M450.2,418.3c3.7-5.2,5.8-11.5,5.8-18.3c0-17.6-14.4-32-32-32s-32,14.4-32,32
	c0,6.8,2.2,13.1,5.8,18.3c-8.2,3.8-13.8,12.1-13.8,21.7v7.1c-9.9-10.1-16-23.9-16-39.1c0-30.9,25.1-56,56-56s56,25.1,56,56
	c0,15.2-6.1,29-16,39.1V440C464,430.4,458.3,422.2,450.2,418.3z"/>
<path class="st0" d="M424,16c-39.7,0-72,32.3-72,72s32.3,72,72,72s72-32.3,72-72S463.7,16,424,16z M448,138.5
	c-7.3,3.5-15.4,5.5-24,5.5s-16.7-2-24-5.5V120c0-4.4,3.6-8,8-8h32c4.4,0,8,3.6,8,8V138.5z M408,80c0-8.8,7.2-16,16-16s16,7.2,16,16
	s-7.2,16-16,16S408,88.8,408,80z M464,127.1V120c0-9.6-5.7-17.8-13.8-21.7c3.7-5.2,5.8-11.5,5.8-18.3c0-17.6-14.4-32-32-32
	s-32,14.4-32,32c0,6.8,2.2,13.1,5.8,18.3c-8.2,3.8-13.8,12.1-13.8,21.7v7.1c-9.9-10.1-16-23.9-16-39.1c0-30.9,25.1-56,56-56
	s56,25.1,56,56C480,103.2,473.9,117,464,127.1z"/>
<path class="st0" d="M216,440v48c0,4.4,3.6,8,8,8h48c4.4,0,8-3.6,8-8v-48c0-4.4-3.6-8-8-8h-48C219.6,432,216,435.6,216,440z
	 M232,448h32v32h-32V448z"/>
<path class="st0" d="M240,104v272h8h8h52.7l-10.3,10.3l11.3,11.3l24-24c3.1-3.1,3.1-8.2,0-11.3l-24-24l-11.3,11.3l10.3,10.3H256V240
	h52.7l-10.3,10.3l11.3,11.3l24-24c3.1-3.1,3.1-8.2,0-11.3l-24-24l-11.3,11.3l10.3,10.3H256V112h52.7l-10.3,10.3l11.3,11.3l24-24
	c3.1-3.1,3.1-8.2,0-11.3l-24-24l-11.3,11.3L308.7,96H248C243.6,96,240,99.6,240,104L240,104z"/>
<path class="st0" d="M240,392h16v24h-16V392z"/>
</svg>
